<svg width="101" height="179" viewBox="0 0 101 179" fill="none" xmlns="http://www.w3.org/2000/svg">
<path d="M28.1826 54.7475C26.9012 54.7475 25.7646 54.4228 24.7728 53.7733C23.7898 53.115 23.0306 52.2154 22.4952 51.0744C21.9598 49.9334 21.6921 48.6564 21.6921 47.2433C21.6921 45.8039 21.9642 44.5181 22.5084 43.3859C23.0525 42.2449 23.8249 41.3541 24.8255 40.7133C25.826 40.0639 26.9846 39.7391 28.3011 39.7391C29.6176 39.7391 30.741 40.0639 31.6714 40.7133C32.6017 41.3541 33.3039 42.2405 33.7778 43.3727C34.2606 44.5049 34.5019 45.7951 34.5019 47.2433C34.5019 48.6827 34.2606 49.9685 33.7778 51.1007C33.2951 52.2329 32.5754 53.1238 31.6187 53.7733C30.6708 54.4228 29.5255 54.7475 28.1826 54.7475ZM28.6697 51.9038C29.4947 51.9038 30.1706 51.7151 30.6972 51.3377C31.2238 50.9515 31.61 50.4117 31.8557 49.7184C32.1102 49.0162 32.2375 48.1912 32.2375 47.2433C32.2375 46.2954 32.1146 45.4748 31.8689 44.7814C31.6231 44.088 31.2413 43.5483 30.7235 43.1621C30.2144 42.7759 29.5649 42.5828 28.775 42.5828C27.95 42.5828 27.2566 42.7891 26.6949 43.2016C26.142 43.6053 25.7295 44.1583 25.4574 44.8604C25.1853 45.5625 25.0493 46.3568 25.0493 47.2433C25.0493 48.1385 25.1809 48.9372 25.4442 49.6394C25.7075 50.3415 26.1113 50.8945 26.6554 51.2982C27.1996 51.7019 27.871 51.9038 28.6697 51.9038ZM32.2375 54.3525V44.3733H31.8425V35.3946H35.0417V54.3525H32.2375ZM45.0127 54.7475C43.6084 54.7475 42.3709 54.4315 41.3001 53.7996C40.2293 53.1589 39.3999 52.2724 38.8119 51.1402C38.2326 49.9992 37.943 48.7003 37.943 47.2433C37.943 45.7688 38.237 44.4654 38.825 43.3332C39.4219 42.1922 40.2557 41.3102 41.3264 40.687C42.406 40.0551 43.6348 39.7391 45.0127 39.7391C46.4258 39.7391 47.6677 40.0595 48.7385 40.7002C49.8092 41.3321 50.6387 42.2186 51.2267 43.3596C51.8148 44.4918 52.1088 45.7864 52.1088 47.2433C52.1088 48.709 51.8104 50.0124 51.2135 51.1534C50.6255 52.2856 49.7961 53.1677 48.7253 53.7996C47.6545 54.4315 46.417 54.7475 45.0127 54.7475ZM45.0127 51.7722C45.829 51.7722 46.5179 51.5835 47.0797 51.206C47.6414 50.8286 48.0583 50.302 48.3304 49.6262C48.6112 48.9416 48.7516 48.1473 48.7516 47.2433C48.7516 45.8302 48.4313 44.7244 47.7906 43.9257C47.1499 43.1182 46.2239 42.7145 45.0127 42.7145C44.1789 42.7145 43.4855 42.9032 42.9326 43.2806C42.3797 43.6492 41.9672 44.1714 41.6951 44.8472C41.4318 45.5231 41.3001 46.3217 41.3001 47.2433C41.3001 48.1737 41.4405 48.9811 41.7214 49.6657C42.0023 50.3415 42.4192 50.8638 42.9721 51.2324C43.525 51.5922 44.2052 51.7722 45.0127 51.7722ZM61.1839 54.7475C59.7533 54.7475 58.5114 54.4271 57.4582 53.7864C56.4137 53.1369 55.6151 52.2461 55.0621 51.1139C54.5092 49.9729 54.2283 48.6827 54.2195 47.2433C54.2283 45.7864 54.5136 44.4918 55.0753 43.3596C55.6458 42.2274 56.4576 41.3409 57.5108 40.7002C58.5728 40.0595 59.8104 39.7391 61.2234 39.7391C62.2942 39.7391 63.2641 39.9234 64.133 40.2921C65.0019 40.6519 65.726 41.1741 66.3052 41.8587C66.8845 42.5433 67.2882 43.3508 67.5164 44.2811L64.3568 45.1369C64.111 44.3821 63.7029 43.7896 63.1324 43.3596C62.5707 42.9295 61.9212 42.7145 61.1839 42.7145C59.9903 42.7145 59.0907 43.127 58.4851 43.952C57.8795 44.777 57.5767 45.8741 57.5767 47.2433C57.5767 48.1561 57.7127 48.9548 57.9848 49.6394C58.2569 50.3152 58.665 50.8418 59.2092 51.2192C59.7533 51.5878 60.4116 51.7722 61.1839 51.7722C62.0002 51.7722 62.6541 51.5878 63.1456 51.2192C63.6458 50.8418 64.0233 50.2757 64.2778 49.5209L67.5164 50.245C67.0776 51.6932 66.3096 52.8078 65.2125 53.589C64.1154 54.3613 62.7726 54.7475 61.1839 54.7475Z" fill="#C4C4C4"/>
<path d="M26.2562 132.746C25.1096 132.746 24.0977 132.573 23.2203 132.225C22.343 131.869 21.6307 131.361 21.0835 130.701C20.5449 130.032 20.1975 129.224 20.0411 128.277L23.2464 127.782C23.3506 128.251 23.5461 128.655 23.8327 128.994C24.1281 129.324 24.4972 129.58 24.9402 129.763C25.3919 129.936 25.9044 130.023 26.4777 130.023C26.9728 130.023 27.3985 129.958 27.7546 129.828C28.1108 129.689 28.38 129.493 28.5624 129.241C28.7535 128.99 28.8491 128.69 28.8491 128.342C28.8491 128.004 28.7709 127.743 28.6146 127.561C28.4582 127.37 28.1412 127.187 27.6634 127.013C27.1857 126.84 26.3865 126.605 25.266 126.31C24.0673 125.997 23.1248 125.663 22.4386 125.307C21.7524 124.942 21.2572 124.516 20.9532 124.03C20.6492 123.534 20.4972 122.931 20.4972 122.219C20.4972 121.35 20.723 120.59 21.1747 119.938C21.6351 119.278 22.2822 118.774 23.1161 118.427C23.95 118.071 24.9229 117.893 26.0347 117.893C27.1205 117.893 28.089 118.062 28.9403 118.401C29.7916 118.74 30.4778 119.226 30.999 119.86C31.5201 120.486 31.8415 121.215 31.9631 122.049L28.7579 122.622C28.6971 122.223 28.5538 121.88 28.3279 121.593C28.1021 121.298 27.798 121.068 27.4158 120.903C27.0423 120.737 26.5993 120.642 26.0868 120.616C25.6004 120.59 25.1704 120.633 24.7969 120.746C24.4234 120.859 24.1324 121.028 23.9239 121.254C23.7242 121.48 23.6243 121.749 23.6243 122.062C23.6243 122.34 23.7155 122.575 23.8979 122.766C24.089 122.948 24.4451 123.135 24.9663 123.326C25.4875 123.508 26.3214 123.743 27.468 124.03C28.6059 124.316 29.5049 124.646 30.1651 125.02C30.8339 125.385 31.316 125.823 31.6114 126.336C31.9154 126.84 32.0674 127.461 32.0674 128.199C32.0674 129.137 31.8329 129.949 31.3638 130.636C30.9034 131.313 30.2346 131.834 29.3572 132.199C28.4886 132.564 27.4549 132.746 26.2562 132.746ZM43.1689 132.355C41.6315 132.651 40.2547 132.673 39.0386 132.421C37.8225 132.169 36.9582 131.569 36.4457 130.623C36.1938 130.145 36.0375 129.663 35.9766 129.176C35.9158 128.681 35.8941 128.03 35.9115 127.222V126.609V114.375H39.0386V126.427V126.831C39.0299 127.396 39.0386 127.839 39.0646 128.16C39.0994 128.473 39.1863 128.738 39.3252 128.955C39.6206 129.433 40.0809 129.719 40.7064 129.815C41.3405 129.902 42.1613 129.871 43.1689 129.724V132.355ZM33.3577 120.746V118.284H43.1689V120.746H33.3577ZM51.4972 132.759C49.925 132.759 48.7263 132.364 47.9011 131.574C47.0846 130.775 46.5547 129.902 46.3115 128.955C46.077 128.008 45.9597 127.07 45.9597 126.14V118.284H49.1389V125.059C49.1389 125.875 49.2127 126.618 49.3604 127.287C49.5081 127.947 49.8251 128.533 50.3116 129.046C50.798 129.55 51.5016 129.802 52.4223 129.802C53.0304 129.802 53.5733 129.676 54.051 129.424C54.5375 129.163 54.937 128.716 55.2497 128.082C55.5625 127.448 55.7188 126.592 55.7188 125.515L57.582 126.31C57.582 127.526 57.3475 128.62 56.8784 129.593C56.4094 130.566 55.7145 131.339 54.7937 131.912C53.8816 132.477 52.7828 132.759 51.4972 132.759ZM56.0967 132.355V127.991H55.7188V118.284H58.8719V132.355H56.0967ZM68.1744 132.746C66.9062 132.746 65.7813 132.425 64.7998 131.782C63.8269 131.131 63.0755 130.24 62.5457 129.111C62.0158 127.982 61.7509 126.718 61.7509 125.32C61.7509 123.895 62.0201 122.622 62.5587 121.502C63.0972 120.373 63.8616 119.491 64.8519 118.857C65.8421 118.214 66.9887 117.893 68.2917 117.893C69.5946 117.893 70.7065 118.214 71.6272 118.857C72.548 119.491 73.2429 120.368 73.712 121.489C74.1897 122.609 74.4286 123.886 74.4286 125.32C74.4286 126.744 74.1897 128.017 73.712 129.137C73.2342 130.258 72.5219 131.139 71.5751 131.782C70.637 132.425 69.5034 132.746 68.1744 132.746ZM68.6565 129.932C69.473 129.932 70.1419 129.745 70.6631 129.372C71.1842 128.99 71.5664 128.455 71.8096 127.769C72.0616 127.074 72.1875 126.258 72.1875 125.32C72.1875 124.381 72.0659 123.569 71.8227 122.883C71.5795 122.197 71.2016 121.663 70.6891 121.28C70.1853 120.898 69.5425 120.707 68.7607 120.707C67.9442 120.707 67.258 120.911 66.7021 121.319C66.1548 121.719 65.7466 122.266 65.4773 122.961C65.208 123.656 65.0734 124.442 65.0734 125.32C65.0734 126.206 65.2037 126.996 65.4643 127.691C65.7249 128.386 66.1244 128.933 66.663 129.333C67.2015 129.732 67.866 129.932 68.6565 129.932ZM72.1875 132.355V122.479H71.7966V113.593H74.9628V132.355H72.1875ZM78.8765 132.355V118.284H82.0166V132.355H78.8765ZM80.4401 116.59C80.0839 116.59 79.7625 116.507 79.4759 116.342C79.1979 116.177 78.9721 115.956 78.7984 115.678C78.6333 115.391 78.5508 115.074 78.5508 114.727C78.5508 114.37 78.6333 114.053 78.7984 113.775C78.9721 113.489 79.1979 113.263 79.4759 113.098C79.7625 112.933 80.0839 112.85 80.4401 112.85C80.7962 112.85 81.1176 112.933 81.4043 113.098C81.6996 113.263 81.9254 113.489 82.0818 113.775C82.2468 114.053 82.3294 114.37 82.3294 114.727C82.3294 115.074 82.2468 115.391 82.0818 115.678C81.9254 115.956 81.6996 116.177 81.4043 116.342C81.1176 116.507 80.7962 116.59 80.4401 116.59ZM92.1347 132.746C90.7449 132.746 89.5201 132.434 88.4604 131.808C87.4006 131.174 86.5798 130.297 85.9978 129.176C85.4245 128.047 85.1378 126.761 85.1378 125.32C85.1378 123.86 85.4288 122.57 86.0108 121.45C86.6015 120.321 87.4267 119.448 88.4864 118.831C89.5548 118.205 90.7709 117.893 92.1347 117.893C93.5332 117.893 94.7623 118.21 95.822 118.844C96.8818 119.469 97.7026 120.347 98.2846 121.476C98.8666 122.596 99.1576 123.878 99.1576 125.32C99.1576 126.77 98.8623 128.06 98.2716 129.189C97.6896 130.31 96.8687 131.183 95.809 131.808C94.7493 132.434 93.5245 132.746 92.1347 132.746ZM92.1347 129.802C92.9425 129.802 93.6244 129.615 94.1803 129.241C94.7362 128.868 95.1488 128.347 95.4181 127.678C95.6961 127 95.8351 126.214 95.8351 125.32C95.8351 123.921 95.518 122.827 94.8839 122.036C94.2498 121.237 93.3334 120.837 92.1347 120.837C91.3095 120.837 90.6233 121.024 90.076 121.398C89.5288 121.762 89.1205 122.279 88.8512 122.948C88.5906 123.617 88.4604 124.407 88.4604 125.32C88.4604 126.24 88.5993 127.039 88.8773 127.717C89.1553 128.386 89.5679 128.903 90.1151 129.267C90.6623 129.624 91.3355 129.802 92.1347 129.802Z" fill="#C4C4C4"/>
<rect width="2.29253" height="4.05422" fill="#C4C4C4"/>
<rect x="2.2926" width="2.29253" height="4.05422" fill="#C4C4C4"/>
<rect x="4.58502" width="2.29253" height="4.05422" fill="#C4C4C4"/>
<rect x="6.87762" width="2.29253" height="4.05422" fill="#C4C4C4"/>
<rect x="9.17023" width="2.29253" height="4.05422" fill="#C4C4C4"/>
<rect x="11.4625" width="2.29253" height="4.05422" fill="#C4C4C4"/>
<rect x="13.7552" width="2.29253" height="4.05422" fill="#C4C4C4"/>
<rect x="16.0476" width="2.29253" height="4.05422" fill="#C4C4C4"/>
<rect x="18.3402" width="2.29253" height="4.05422" fill="#C4C4C4"/>
<rect x="20.6328" width="2.29253" height="4.05422" fill="#C4C4C4"/>
<rect x="22.9252" width="2.29253" height="4.05422" fill="#C4C4C4"/>
<rect x="25.2178" width="2.29253" height="4.05422" fill="#C4C4C4"/>
<rect x="27.5104" width="2.29253" height="4.05422" fill="#C4C4C4"/>
<rect x="29.8027" width="2.29253" height="4.05422" fill="#C4C4C4"/>
<rect x="32.0953" width="2.29253" height="4.05422" fill="#C4C4C4"/>
<rect x="34.3879" width="2.29253" height="4.05422" fill="#C4C4C4"/>
<rect x="36.6803" width="2.29253" height="4.05422" fill="#C4C4C4"/>
<rect x="38.973" width="2.29253" height="4.05422" fill="#C4C4C4"/>
<rect x="41.2654" width="2.29253" height="4.05422" fill="#C4C4C4"/>
<rect x="43.558" width="2.29253" height="4.05422" fill="#C4C4C4"/>
<rect x="45.8506" width="2.29253" height="4.05422" fill="#C4C4C4"/>
<rect x="48.1429" width="2.29253" height="4.05422" fill="#C4C4C4"/>
<rect x="50.4355" width="2.29253" height="4.05422" fill="#C4C4C4"/>
<rect x="52.7281" width="2.29253" height="4.05422" fill="#C4C4C4"/>
<rect x="55.0205" width="2.29253" height="4.05422" fill="#C4C4C4"/>
<rect x="57.3131" width="2.29253" height="4.05422" fill="#C4C4C4"/>
<rect x="59.6057" width="2.29253" height="4.05422" fill="#C4C4C4"/>
<rect x="61.8981" width="2.29253" height="4.05422" fill="#C4C4C4"/>
<rect x="64.1908" width="2.29253" height="4.05422" fill="#C4C4C4"/>
<rect x="66.4832" width="2.29253" height="4.05422" fill="#C4C4C4"/>
<rect x="68.7758" width="2.29253" height="4.05422" fill="#C4C4C4"/>
<rect x="71.0684" width="2.29253" height="4.05422" fill="#C4C4C4"/>
<rect y="4.05371" width="2.29253" height="4.05422" fill="#C4C4C4"/>
<rect x="2.2926" y="4.05371" width="2.29253" height="4.05422" fill="#C4C4C4"/>
<rect x="4.58496" y="4.05371" width="2.29253" height="4.05422" fill="#C4C4C4"/>
<rect x="6.87756" y="4.05371" width="2.29253" height="4.05422" fill="#C4C4C4"/>
<rect x="9.17017" y="4.05371" width="2.29253" height="4.05422" fill="#C4C4C4"/>
<rect x="11.4625" y="4.05371" width="2.29253" height="4.05422" fill="#C4C4C4"/>
<rect x="13.7552" y="4.05371" width="2.29253" height="4.05422" fill="#C4C4C4"/>
<rect x="16.0476" y="4.05371" width="2.29253" height="4.05422" fill="#C4C4C4"/>
<rect x="18.3402" y="4.05371" width="2.29253" height="4.05422" fill="#C4C4C4"/>
<rect x="20.6328" y="4.05371" width="2.29253" height="4.05422" fill="#C4C4C4"/>
<rect x="22.9252" y="4.05371" width="2.29253" height="4.05422" fill="#C4C4C4"/>
<rect x="25.2178" y="4.05371" width="2.29253" height="4.05422" fill="#C4C4C4"/>
<rect x="27.5104" y="4.05371" width="2.29253" height="4.05422" fill="#C4C4C4"/>
<rect x="29.8027" y="4.05371" width="2.29253" height="4.05422" fill="#C4C4C4"/>
<rect x="32.0953" y="4.05371" width="2.29253" height="4.05422" fill="#C4C4C4"/>
<rect x="34.3879" y="4.05371" width="2.29253" height="4.05422" fill="#C4C4C4"/>
<rect x="36.6803" y="4.05371" width="2.29253" height="4.05422" fill="#C4C4C4"/>
<rect x="38.973" y="4.05371" width="2.29253" height="4.05422" fill="#C4C4C4"/>
<rect x="41.2654" y="4.05371" width="2.29253" height="4.05422" fill="#C4C4C4"/>
<rect x="43.558" y="4.05371" width="2.29253" height="4.05422" fill="#C4C4C4"/>
<rect x="45.8506" y="4.05371" width="2.29253" height="4.05422" fill="#C4C4C4"/>
<rect x="48.1429" y="4.05371" width="2.29253" height="4.05422" fill="#C4C4C4"/>
<rect x="50.4355" y="4.05371" width="2.29253" height="4.05422" fill="#C4C4C4"/>
<rect x="52.7281" y="4.05371" width="2.29253" height="4.05422" fill="#C4C4C4"/>
<rect x="55.0205" y="4.05371" width="2.29253" height="4.05422" fill="#C4C4C4"/>
<rect x="57.3131" y="4.05371" width="2.29253" height="4.05422" fill="#C4C4C4"/>
<rect x="59.6057" y="4.05371" width="2.29253" height="4.05422" fill="#C4C4C4"/>
<rect x="61.8981" y="4.05371" width="2.29253" height="4.05422" fill="#C4C4C4"/>
<rect x="64.1908" y="4.05371" width="2.29253" height="4.05422" fill="#C4C4C4"/>
<rect x="66.4832" y="4.05371" width="2.29253" height="4.05422" fill="#C4C4C4"/>
<rect x="68.7758" y="4.05371" width="2.29253" height="4.05422" fill="#C4C4C4"/>
<rect x="71.0684" y="4.05371" width="2.29253" height="4.05422" fill="#C4C4C4"/>
<rect y="8.1084" width="2.29253" height="4.05422" fill="#C4C4C4"/>
<rect x="2.2926" y="8.1084" width="2.29253" height="4.05422" fill="#C4C4C4"/>
<rect x="4.58496" y="8.1084" width="2.29253" height="4.05422" fill="#C4C4C4"/>
<rect x="6.87756" y="8.1084" width="2.29253" height="4.05422" fill="#C4C4C4"/>
<rect x="9.17017" y="8.1084" width="2.29253" height="4.05422" fill="#C4C4C4"/>
<rect x="11.4625" y="8.1084" width="2.29253" height="4.05422" fill="#C4C4C4"/>
<rect x="13.7552" y="8.1084" width="2.29253" height="4.05422" fill="#C4C4C4"/>
<rect x="16.0476" y="8.1084" width="2.29253" height="4.05422" fill="#C4C4C4"/>
<rect x="18.3402" y="8.1084" width="2.29253" height="4.05422" fill="#C4C4C4"/>
<rect x="20.6328" y="8.1084" width="2.29253" height="4.05422" fill="#C4C4C4"/>
<rect x="22.9252" y="8.1084" width="2.29253" height="4.05422" fill="#C4C4C4"/>
<rect x="25.2178" y="8.1084" width="2.29253" height="4.05422" fill="#C4C4C4"/>
<rect x="27.5104" y="8.1084" width="2.29253" height="4.05422" fill="#C4C4C4"/>
<rect x="29.8027" y="8.1084" width="2.29253" height="4.05422" fill="#C4C4C4"/>
<rect x="32.0953" y="8.1084" width="2.29253" height="4.05422" fill="#C4C4C4"/>
<rect x="34.3879" y="8.1084" width="2.29253" height="4.05422" fill="#C4C4C4"/>
<rect x="36.6803" y="8.1084" width="2.29253" height="4.05422" fill="#C4C4C4"/>
<rect x="38.973" y="8.1084" width="2.29253" height="4.05422" fill="#C4C4C4"/>
<rect x="41.2654" y="8.1084" width="2.29253" height="4.05422" fill="#C4C4C4"/>
<rect x="43.558" y="8.1084" width="2.29253" height="4.05422" fill="#C4C4C4"/>
<rect x="45.8506" y="8.1084" width="2.29253" height="4.05422" fill="#C4C4C4"/>
<rect x="48.1429" y="8.1084" width="2.29253" height="4.05422" fill="#C4C4C4"/>
<rect x="50.4355" y="8.1084" width="2.29253" height="4.05422" fill="#C4C4C4"/>
<rect x="52.7281" y="8.1084" width="2.29253" height="4.05422" fill="#C4C4C4"/>
<rect x="55.0205" y="8.1084" width="2.29253" height="4.05422" fill="#C4C4C4"/>
<rect x="57.3131" y="8.1084" width="2.29253" height="4.05422" fill="#C4C4C4"/>
<rect x="59.6057" y="8.1084" width="2.29253" height="4.05422" fill="#C4C4C4"/>
<rect x="61.8981" y="8.1084" width="2.29253" height="4.05422" fill="#C4C4C4"/>
<rect x="64.1908" y="8.1084" width="2.29253" height="4.05422" fill="#C4C4C4"/>
<rect x="66.4832" y="8.1084" width="2.29253" height="4.05422" fill="#C4C4C4"/>
<rect x="68.7758" y="8.1084" width="2.29253" height="4.05422" fill="#C4C4C4"/>
<rect x="71.0684" y="8.1084" width="2.29253" height="4.05422" fill="#C4C4C4"/>
<rect x="73.3607" y="8.1084" width="2.29253" height="4.05422" fill="#C4C4C4"/>
<rect x="75.6533" y="8.1084" width="2.29253" height="4.05422" fill="#C4C4C4"/>
<rect y="12.1621" width="2.29253" height="4.05422" fill="#C4C4C4"/>
<rect x="2.2926" y="12.1621" width="2.29253" height="4.05422" fill="#C4C4C4"/>
<rect x="4.58496" y="12.1621" width="2.29253" height="4.05422" fill="#C4C4C4"/>
<rect x="6.87756" y="12.1621" width="2.29253" height="4.05422" fill="#C4C4C4"/>
<rect x="9.17017" y="12.1621" width="2.29253" height="4.05422" fill="#C4C4C4"/>
<rect x="11.4625" y="12.1621" width="2.29253" height="4.05422" fill="#C4C4C4"/>
<rect x="13.7552" y="12.1621" width="2.29253" height="4.05422" fill="#C4C4C4"/>
<rect x="16.0476" y="12.1621" width="2.29253" height="4.05422" fill="#C4C4C4"/>
<rect x="18.3402" y="12.1621" width="2.29253" height="4.05422" fill="#C4C4C4"/>
<rect x="20.6328" y="12.1621" width="2.29253" height="4.05422" fill="#C4C4C4"/>
<rect x="22.9252" y="12.1621" width="2.29253" height="4.05422" fill="#C4C4C4"/>
<rect x="25.2178" y="12.1621" width="2.29253" height="4.05422" fill="#C4C4C4"/>
<rect x="27.5104" y="12.1621" width="2.29253" height="4.05422" fill="#C4C4C4"/>
<rect x="29.8027" y="12.1621" width="2.29253" height="4.05422" fill="#C4C4C4"/>
<rect x="32.0953" y="12.1621" width="2.29253" height="4.05422" fill="#C4C4C4"/>
<rect x="34.3879" y="12.1621" width="2.29253" height="4.05422" fill="#C4C4C4"/>
<rect x="36.6803" y="12.1621" width="2.29253" height="4.05422" fill="#C4C4C4"/>
<rect x="38.973" y="12.1621" width="2.29253" height="4.05422" fill="#C4C4C4"/>
<rect x="41.2654" y="12.1621" width="2.29253" height="4.05422" fill="#C4C4C4"/>
<rect x="43.558" y="12.1621" width="2.29253" height="4.05422" fill="#C4C4C4"/>
<rect x="45.8506" y="12.1621" width="2.29253" height="4.05422" fill="#C4C4C4"/>
<rect x="48.1429" y="12.1621" width="2.29253" height="4.05422" fill="#C4C4C4"/>
<rect x="50.4355" y="12.1621" width="2.29253" height="4.05422" fill="#C4C4C4"/>
<rect x="52.7281" y="12.1621" width="2.29253" height="4.05422" fill="#C4C4C4"/>
<rect x="55.0205" y="12.1621" width="2.29253" height="4.05422" fill="#C4C4C4"/>
<rect x="57.3131" y="12.1621" width="2.29253" height="4.05422" fill="#C4C4C4"/>
<rect x="59.6057" y="12.1621" width="2.29253" height="4.05422" fill="#C4C4C4"/>
<rect x="61.8981" y="12.1621" width="2.29253" height="4.05422" fill="#C4C4C4"/>
<rect x="64.1908" y="12.1621" width="2.29253" height="4.05422" fill="#C4C4C4"/>
<rect x="66.4832" y="12.1621" width="2.29253" height="4.05422" fill="#C4C4C4"/>
<rect x="68.7758" y="12.1621" width="2.29253" height="4.05422" fill="#C4C4C4"/>
<rect x="71.0684" y="12.1621" width="2.29253" height="4.05422" fill="#C4C4C4"/>
<rect x="73.3607" y="12.1621" width="2.29253" height="4.05422" fill="#C4C4C4"/>
<rect x="75.6533" y="12.1621" width="2.29253" height="4.05422" fill="#C4C4C4"/>
<rect y="16.2168" width="2.29253" height="4.05422" fill="#C4C4C4"/>
<rect x="2.2926" y="16.2168" width="2.29253" height="4.05422" fill="#C4C4C4"/>
<rect x="4.58496" y="16.2168" width="2.29253" height="4.05422" fill="#C4C4C4"/>
<rect x="6.87756" y="16.2168" width="2.29253" height="4.05422" fill="#C4C4C4"/>
<rect x="9.17017" y="16.2168" width="2.29253" height="4.05422" fill="#C4C4C4"/>
<rect x="11.4625" y="16.2168" width="2.29253" height="4.05422" fill="#C4C4C4"/>
<rect x="13.7552" y="16.2168" width="2.29253" height="4.05422" fill="#C4C4C4"/>
<rect x="16.0476" y="16.2168" width="2.29253" height="4.05422" fill="#C4C4C4"/>
<rect x="18.3402" y="16.2168" width="2.29253" height="4.05422" fill="#C4C4C4"/>
<rect x="20.6328" y="16.2168" width="2.29253" height="4.05422" fill="#C4C4C4"/>
<rect x="22.9252" y="16.2168" width="2.29253" height="4.05422" fill="#C4C4C4"/>
<rect x="25.2178" y="16.2168" width="2.29253" height="4.05422" fill="#C4C4C4"/>
<rect x="27.5104" y="16.2168" width="2.29253" height="4.05422" fill="#C4C4C4"/>
<rect x="29.8027" y="16.2168" width="2.29253" height="4.05422" fill="#C4C4C4"/>
<rect x="32.0953" y="16.2168" width="2.29253" height="4.05422" fill="#C4C4C4"/>
<rect x="34.3879" y="16.2168" width="2.29253" height="4.05422" fill="#C4C4C4"/>
<rect x="36.6803" y="16.2168" width="2.29253" height="4.05422" fill="#C4C4C4"/>
<rect x="38.973" y="16.2168" width="2.29253" height="4.05422" fill="#C4C4C4"/>
<rect x="41.2654" y="16.2168" width="2.29253" height="4.05422" fill="#C4C4C4"/>
<rect x="43.558" y="16.2168" width="2.29253" height="4.05422" fill="#C4C4C4"/>
<rect x="45.8506" y="16.2168" width="2.29253" height="4.05422" fill="#C4C4C4"/>
<rect x="48.1429" y="16.2168" width="2.29253" height="4.05422" fill="#C4C4C4"/>
<rect x="50.4355" y="16.2168" width="2.29253" height="4.05422" fill="#C4C4C4"/>
<rect x="52.7281" y="16.2168" width="2.29253" height="4.05422" fill="#C4C4C4"/>
<rect x="55.0205" y="16.2168" width="2.29253" height="4.05422" fill="#C4C4C4"/>
<rect x="57.3131" y="16.2168" width="2.29253" height="4.05422" fill="#C4C4C4"/>
<rect x="59.6057" y="16.2168" width="2.29253" height="4.05422" fill="#C4C4C4"/>
<rect x="61.8981" y="16.2168" width="2.29253" height="4.05422" fill="#C4C4C4"/>
<rect x="64.1908" y="16.2168" width="2.29253" height="4.05422" fill="#C4C4C4"/>
<rect x="66.4832" y="16.2168" width="2.29253" height="4.05422" fill="#C4C4C4"/>
<rect x="68.7758" y="16.2168" width="2.29253" height="4.05422" fill="#C4C4C4"/>
<rect x="71.0684" y="16.2168" width="2.29253" height="4.05422" fill="#C4C4C4"/>
<rect x="73.3607" y="16.2168" width="2.29253" height="4.05422" fill="#C4C4C4"/>
<rect x="75.6533" y="16.2168" width="2.29253" height="4.05422" fill="#C4C4C4"/>
<rect x="77.9459" y="16.2168" width="2.29253" height="4.05422" fill="#C4C4C4"/>
<rect x="80.2383" y="16.2168" width="2.29253" height="4.05422" fill="#C4C4C4"/>
<rect y="20.2715" width="2.29253" height="4.05422" fill="#C4C4C4"/>
<rect x="2.2926" y="20.2715" width="2.29253" height="4.05422" fill="#C4C4C4"/>
<rect x="4.58496" y="20.2715" width="2.29253" height="4.05422" fill="#C4C4C4"/>
<rect x="6.87756" y="20.2715" width="2.29253" height="4.05422" fill="#C4C4C4"/>
<rect x="9.17017" y="20.2715" width="2.29253" height="4.05422" fill="#C4C4C4"/>
<rect x="11.4625" y="20.2715" width="2.29253" height="4.05422" fill="#C4C4C4"/>
<rect x="13.7552" y="20.2715" width="2.29253" height="4.05422" fill="#C4C4C4"/>
<rect x="16.0476" y="20.2715" width="2.29253" height="4.05422" fill="#C4C4C4"/>
<rect x="18.3402" y="20.2715" width="2.29253" height="4.05422" fill="#C4C4C4"/>
<rect x="20.6328" y="20.2715" width="2.29253" height="4.05422" fill="#C4C4C4"/>
<rect x="22.9252" y="20.2715" width="2.29253" height="4.05422" fill="#C4C4C4"/>
<rect x="25.2178" y="20.2715" width="2.29253" height="4.05422" fill="#C4C4C4"/>
<rect x="27.5104" y="20.2715" width="2.29253" height="4.05422" fill="#C4C4C4"/>
<rect x="29.8027" y="20.2715" width="2.29253" height="4.05422" fill="#C4C4C4"/>
<rect x="32.0953" y="20.2715" width="2.29253" height="4.05422" fill="#C4C4C4"/>
<rect x="34.3879" y="20.2715" width="2.29253" height="4.05422" fill="#C4C4C4"/>
<rect x="36.6803" y="20.2715" width="2.29253" height="4.05422" fill="#C4C4C4"/>
<rect x="38.973" y="20.2715" width="2.29253" height="4.05422" fill="#C4C4C4"/>
<rect x="41.2654" y="20.2715" width="2.29253" height="4.05422" fill="#C4C4C4"/>
<rect x="43.558" y="20.2715" width="2.29253" height="4.05422" fill="#C4C4C4"/>
<rect x="45.8506" y="20.2715" width="2.29253" height="4.05422" fill="#C4C4C4"/>
<rect x="48.1429" y="20.2715" width="2.29253" height="4.05422" fill="#C4C4C4"/>
<rect x="50.4355" y="20.2715" width="2.29253" height="4.05422" fill="#C4C4C4"/>
<rect x="52.7281" y="20.2715" width="2.29253" height="4.05422" fill="#C4C4C4"/>
<rect x="55.0205" y="20.2715" width="2.29253" height="4.05422" fill="#C4C4C4"/>
<rect x="57.3131" y="20.2715" width="2.29253" height="4.05422" fill="#C4C4C4"/>
<rect x="59.6057" y="20.2715" width="2.29253" height="4.05422" fill="#C4C4C4"/>
<rect x="61.8981" y="20.2715" width="2.29253" height="4.05422" fill="#C4C4C4"/>
<rect x="64.1908" y="20.2715" width="2.29253" height="4.05422" fill="#C4C4C4"/>
<rect x="66.4832" y="20.2715" width="2.29253" height="4.05422" fill="#C4C4C4"/>
<rect x="68.7758" y="20.2715" width="2.29253" height="4.05422" fill="#C4C4C4"/>
<rect x="71.0684" y="20.2715" width="2.29253" height="4.05422" fill="#C4C4C4"/>
<rect x="73.3607" y="20.2715" width="2.29253" height="4.05422" fill="#C4C4C4"/>
<rect x="75.6533" y="20.2715" width="2.29253" height="4.05422" fill="#C4C4C4"/>
<rect x="77.9459" y="20.2715" width="2.29253" height="4.05422" fill="#C4C4C4"/>
<rect x="80.2383" y="20.2715" width="2.29253" height="4.05422" fill="#C4C4C4"/>
<rect y="24.3252" width="2.29253" height="4.05422" fill="#C4C4C4"/>
<rect x="2.2926" y="24.3252" width="2.29253" height="4.05422" fill="#C4C4C4"/>
<rect x="4.58496" y="24.3252" width="2.29253" height="4.05422" fill="#C4C4C4"/>
<rect x="6.87756" y="24.3252" width="2.29253" height="4.05422" fill="#C4C4C4"/>
<rect x="9.17017" y="24.3252" width="2.29253" height="4.05422" fill="#C4C4C4"/>
<rect x="11.4625" y="24.3252" width="2.29253" height="4.05422" fill="#C4C4C4"/>
<rect x="13.7552" y="24.3252" width="2.29253" height="4.05422" fill="#C4C4C4"/>
<rect x="16.0476" y="24.3252" width="2.29253" height="4.05422" fill="#C4C4C4"/>
<rect x="18.3402" y="24.3252" width="2.29253" height="4.05422" fill="#C4C4C4"/>
<rect x="20.6328" y="24.3252" width="2.29253" height="4.05422" fill="#C4C4C4"/>
<rect x="22.9252" y="24.3252" width="2.29253" height="4.05422" fill="#C4C4C4"/>
<rect x="25.2178" y="24.3252" width="2.29253" height="4.05422" fill="#C4C4C4"/>
<rect x="27.5104" y="24.3252" width="2.29253" height="4.05422" fill="#C4C4C4"/>
<rect x="29.8027" y="24.3252" width="2.29253" height="4.05422" fill="#C4C4C4"/>
<rect x="32.0953" y="24.3252" width="2.29253" height="4.05422" fill="#C4C4C4"/>
<rect x="34.3879" y="24.3252" width="2.29253" height="4.05422" fill="#C4C4C4"/>
<rect x="36.6803" y="24.3252" width="2.29253" height="4.05422" fill="#C4C4C4"/>
<rect x="38.973" y="24.3252" width="2.29253" height="4.05422" fill="#C4C4C4"/>
<rect x="41.2654" y="24.3252" width="2.29253" height="4.05422" fill="#C4C4C4"/>
<rect x="43.558" y="24.3252" width="2.29253" height="4.05422" fill="#C4C4C4"/>
<rect x="45.8506" y="24.3252" width="2.29253" height="4.05422" fill="#C4C4C4"/>
<rect x="48.1429" y="24.3252" width="2.29253" height="4.05422" fill="#C4C4C4"/>
<rect x="50.4355" y="24.3252" width="2.29253" height="4.05422" fill="#C4C4C4"/>
<rect x="52.7281" y="24.3252" width="2.29253" height="4.05422" fill="#C4C4C4"/>
<rect x="55.0205" y="24.3252" width="2.29253" height="4.05422" fill="#C4C4C4"/>
<rect x="57.3131" y="24.3252" width="2.29253" height="4.05422" fill="#C4C4C4"/>
<rect x="59.6057" y="24.3252" width="2.29253" height="4.05422" fill="#C4C4C4"/>
<rect x="61.8981" y="24.3252" width="2.29253" height="4.05422" fill="#C4C4C4"/>
<rect x="64.1908" y="24.3252" width="2.29253" height="4.05422" fill="#C4C4C4"/>
<rect x="66.4832" y="24.3252" width="2.29253" height="4.05422" fill="#C4C4C4"/>
<rect x="68.7758" y="24.3252" width="2.29253" height="4.05422" fill="#C4C4C4"/>
<rect x="71.0684" y="24.3252" width="2.29253" height="4.05422" fill="#C4C4C4"/>
<rect x="73.3607" y="24.3252" width="2.29253" height="4.05422" fill="#C4C4C4"/>
<rect x="75.6533" y="24.3252" width="2.29253" height="4.05422" fill="#C4C4C4"/>
<rect x="77.9459" y="24.3252" width="2.29253" height="4.05422" fill="#C4C4C4"/>
<rect x="80.2383" y="24.3252" width="2.29253" height="4.05422" fill="#C4C4C4"/>
<rect x="82.5309" y="24.3252" width="2.29253" height="4.05422" fill="#C4C4C4"/>
<rect x="84.8235" y="24.3252" width="2.29253" height="4.05422" fill="#C4C4C4"/>
<rect y="28.3799" width="2.29253" height="4.05422" fill="#C4C4C4"/>
<rect x="2.2926" y="28.3799" width="2.29253" height="4.05422" fill="#C4C4C4"/>
<rect x="4.58496" y="28.3799" width="2.29253" height="4.05422" fill="#C4C4C4"/>
<rect x="6.87756" y="28.3799" width="2.29253" height="4.05422" fill="#C4C4C4"/>
<rect x="9.17017" y="28.3799" width="2.29253" height="4.05422" fill="#C4C4C4"/>
<rect x="11.4625" y="28.3799" width="2.29253" height="4.05422" fill="#C4C4C4"/>
<rect x="13.7552" y="28.3799" width="2.29253" height="4.05422" fill="#C4C4C4"/>
<rect x="64.1908" y="28.3799" width="2.29253" height="4.05422" fill="#C4C4C4"/>
<rect x="66.4832" y="28.3799" width="2.29253" height="4.05422" fill="#C4C4C4"/>
<rect x="68.7758" y="28.3799" width="2.29253" height="4.05422" fill="#C4C4C4"/>
<rect x="71.0684" y="28.3799" width="2.29253" height="4.05422" fill="#C4C4C4"/>
<rect x="73.3607" y="28.3799" width="2.29253" height="4.05422" fill="#C4C4C4"/>
<rect x="75.6533" y="28.3799" width="2.29253" height="4.05422" fill="#C4C4C4"/>
<rect x="77.9459" y="28.3799" width="2.29253" height="4.05422" fill="#C4C4C4"/>
<rect x="80.2383" y="28.3799" width="2.29253" height="4.05422" fill="#C4C4C4"/>
<rect x="82.5309" y="28.3799" width="2.29253" height="4.05422" fill="#C4C4C4"/>
<rect x="84.8235" y="28.3799" width="2.29253" height="4.05422" fill="#C4C4C4"/>
<rect y="32.4336" width="2.29253" height="4.05422" fill="#C4C4C4"/>
<rect x="2.2926" y="32.4336" width="2.29253" height="4.05422" fill="#C4C4C4"/>
<rect x="4.58496" y="32.4336" width="2.29253" height="4.05422" fill="#C4C4C4"/>
<rect x="6.87756" y="32.4336" width="2.29253" height="4.05422" fill="#C4C4C4"/>
<rect x="9.17017" y="32.4336" width="2.29253" height="4.05422" fill="#C4C4C4"/>
<rect x="11.4625" y="32.4336" width="2.29253" height="4.05422" fill="#C4C4C4"/>
<rect x="13.7552" y="32.4336" width="2.29253" height="4.05422" fill="#C4C4C4"/>
<rect x="64.1908" y="32.4336" width="2.29253" height="4.05422" fill="#C4C4C4"/>
<rect x="66.4832" y="32.4336" width="2.29253" height="4.05422" fill="#C4C4C4"/>
<rect x="68.7758" y="32.4336" width="2.29253" height="4.05422" fill="#C4C4C4"/>
<rect x="71.0684" y="32.4336" width="2.29253" height="4.05422" fill="#C4C4C4"/>
<rect x="73.3607" y="32.4336" width="2.29253" height="4.05422" fill="#C4C4C4"/>
<rect x="75.6533" y="32.4336" width="2.29253" height="4.05422" fill="#C4C4C4"/>
<rect x="77.9459" y="32.4336" width="2.29253" height="4.05422" fill="#C4C4C4"/>
<rect x="80.2383" y="32.4336" width="2.29253" height="4.05422" fill="#C4C4C4"/>
<rect x="82.5309" y="32.4336" width="2.29253" height="4.05422" fill="#C4C4C4"/>
<rect x="84.8235" y="32.4336" width="2.29253" height="4.05422" fill="#C4C4C4"/>
<rect x="87.1158" y="32.4336" width="2.29253" height="4.05422" fill="#C4C4C4"/>
<rect x="89.4086" y="32.4336" width="2.29253" height="4.05422" fill="#C4C4C4"/>
<rect y="36.4873" width="2.29253" height="4.05422" fill="#C4C4C4"/>
<rect x="2.2926" y="36.4873" width="2.29253" height="4.05422" fill="#C4C4C4"/>
<rect x="4.58496" y="36.4873" width="2.29253" height="4.05422" fill="#C4C4C4"/>
<rect x="6.87756" y="36.4873" width="2.29253" height="4.05422" fill="#C4C4C4"/>
<rect x="9.17017" y="36.4873" width="2.29253" height="4.05422" fill="#C4C4C4"/>
<rect x="11.4625" y="36.4873" width="2.29253" height="4.05422" fill="#C4C4C4"/>
<rect x="13.7552" y="36.4873" width="2.29253" height="4.05422" fill="#C4C4C4"/>
<rect x="64.1908" y="36.4873" width="2.29253" height="4.05422" fill="#C4C4C4"/>
<rect x="66.4832" y="36.4873" width="2.29253" height="4.05422" fill="#C4C4C4"/>
<rect x="68.7758" y="36.4873" width="2.29253" height="4.05422" fill="#C4C4C4"/>
<rect x="71.0684" y="36.4873" width="2.29253" height="4.05422" fill="#C4C4C4"/>
<rect x="73.3607" y="36.4873" width="2.29253" height="4.05422" fill="#C4C4C4"/>
<rect x="75.6533" y="36.4873" width="2.29253" height="4.05422" fill="#C4C4C4"/>
<rect x="77.9459" y="36.4873" width="2.29253" height="4.05422" fill="#C4C4C4"/>
<rect x="80.2383" y="36.4873" width="2.29253" height="4.05422" fill="#C4C4C4"/>
<rect x="82.5309" y="36.4873" width="2.29253" height="4.05422" fill="#C4C4C4"/>
<rect x="84.8235" y="36.4873" width="2.29253" height="4.05422" fill="#C4C4C4"/>
<rect x="87.1158" y="36.4873" width="2.29253" height="4.05422" fill="#C4C4C4"/>
<rect x="89.4086" y="36.4873" width="2.29253" height="4.05422" fill="#C4C4C4"/>
<rect y="40.542" width="2.29253" height="4.05422" fill="#C4C4C4"/>
<rect x="2.2926" y="40.542" width="2.29253" height="4.05422" fill="#C4C4C4"/>
<rect x="4.58496" y="40.542" width="2.29253" height="4.05422" fill="#C4C4C4"/>
<rect x="6.87756" y="40.542" width="2.29253" height="4.05422" fill="#C4C4C4"/>
<rect x="9.17017" y="40.542" width="2.29253" height="4.05422" fill="#C4C4C4"/>
<rect x="11.4625" y="40.542" width="2.29253" height="4.05422" fill="#C4C4C4"/>
<rect x="13.7552" y="40.542" width="2.29253" height="4.05422" fill="#C4C4C4"/>
<rect x="64.1908" y="40.542" width="2.29253" height="4.05422" fill="#C4C4C4"/>
<rect x="66.4832" y="40.542" width="2.29253" height="4.05422" fill="#C4C4C4"/>
<rect x="68.7758" y="40.542" width="2.29253" height="4.05422" fill="#C4C4C4"/>
<rect x="71.0684" y="40.542" width="2.29253" height="4.05422" fill="#C4C4C4"/>
<rect x="73.3607" y="40.542" width="2.29253" height="4.05422" fill="#C4C4C4"/>
<rect x="75.6533" y="40.542" width="2.29253" height="4.05422" fill="#C4C4C4"/>
<rect x="77.9459" y="40.542" width="2.29253" height="4.05422" fill="#C4C4C4"/>
<rect x="80.2383" y="40.542" width="2.29253" height="4.05422" fill="#C4C4C4"/>
<rect x="82.5309" y="40.542" width="2.29253" height="4.05422" fill="#C4C4C4"/>
<rect x="84.8235" y="40.542" width="2.29253" height="4.05422" fill="#C4C4C4"/>
<rect x="87.1158" y="40.542" width="2.29253" height="4.05422" fill="#C4C4C4"/>
<rect x="89.4086" y="40.542" width="2.29253" height="4.05422" fill="#C4C4C4"/>
<rect x="91.7009" y="40.542" width="2.29253" height="4.05422" fill="#C4C4C4"/>
<rect x="93.9935" y="40.542" width="2.29253" height="4.05422" fill="#C4C4C4"/>
<rect y="44.5967" width="2.29253" height="4.05422" fill="#C4C4C4"/>
<rect x="2.2926" y="44.5967" width="2.29253" height="4.05422" fill="#C4C4C4"/>
<rect x="4.58496" y="44.5967" width="2.29253" height="4.05422" fill="#C4C4C4"/>
<rect x="6.87756" y="44.5967" width="2.29253" height="4.05422" fill="#C4C4C4"/>
<rect x="9.17017" y="44.5967" width="2.29253" height="4.05422" fill="#C4C4C4"/>
<rect x="11.4625" y="44.5967" width="2.29253" height="4.05422" fill="#C4C4C4"/>
<rect x="13.7552" y="44.5967" width="2.29253" height="4.05422" fill="#C4C4C4"/>
<rect x="64.1908" y="44.5967" width="2.29253" height="4.05422" fill="#C4C4C4"/>
<rect x="66.4832" y="44.5967" width="2.29253" height="4.05422" fill="#C4C4C4"/>
<rect x="68.7758" y="44.5967" width="2.29253" height="4.05422" fill="#C4C4C4"/>
<rect x="71.0684" y="44.5967" width="2.29253" height="4.05422" fill="#C4C4C4"/>
<rect x="73.3607" y="44.5967" width="2.29253" height="4.05422" fill="#C4C4C4"/>
<rect x="75.6533" y="44.5967" width="2.29253" height="4.05422" fill="#C4C4C4"/>
<rect x="77.9459" y="44.5967" width="2.29253" height="4.05422" fill="#C4C4C4"/>
<rect x="80.2383" y="44.5967" width="2.29253" height="4.05422" fill="#C4C4C4"/>
<rect x="82.5309" y="44.5967" width="2.29253" height="4.05422" fill="#C4C4C4"/>
<rect x="84.8235" y="44.5967" width="2.29253" height="4.05422" fill="#C4C4C4"/>
<rect x="87.1158" y="44.5967" width="2.29253" height="4.05422" fill="#C4C4C4"/>
<rect x="89.4086" y="44.5967" width="2.29253" height="4.05422" fill="#C4C4C4"/>
<rect x="91.7009" y="44.5967" width="2.29253" height="4.05422" fill="#C4C4C4"/>
<rect x="93.9935" y="44.5967" width="2.29253" height="4.05422" fill="#C4C4C4"/>
<rect y="48.6504" width="2.29253" height="4.05422" fill="#C4C4C4"/>
<rect x="2.2926" y="48.6504" width="2.29253" height="4.05422" fill="#C4C4C4"/>
<rect x="4.58496" y="48.6504" width="2.29253" height="4.05422" fill="#C4C4C4"/>
<rect x="6.87756" y="48.6504" width="2.29253" height="4.05422" fill="#C4C4C4"/>
<rect x="9.17017" y="48.6504" width="2.29253" height="4.05422" fill="#C4C4C4"/>
<rect x="11.4625" y="48.6504" width="2.29253" height="4.05422" fill="#C4C4C4"/>
<rect x="13.7552" y="48.6504" width="2.29253" height="4.05422" fill="#C4C4C4"/>
<rect x="64.1908" y="48.6504" width="2.29253" height="4.05422" fill="#C4C4C4"/>
<rect x="66.4832" y="48.6504" width="2.29253" height="4.05422" fill="#C4C4C4"/>
<rect x="68.7758" y="48.6504" width="2.29253" height="4.05422" fill="#C4C4C4"/>
<rect x="71.0684" y="48.6504" width="2.29253" height="4.05422" fill="#C4C4C4"/>
<rect x="73.3607" y="48.6504" width="2.29253" height="4.05422" fill="#C4C4C4"/>
<rect x="75.6533" y="48.6504" width="2.29253" height="4.05422" fill="#C4C4C4"/>
<rect x="77.9459" y="48.6504" width="2.29253" height="4.05422" fill="#C4C4C4"/>
<rect x="80.2383" y="48.6504" width="2.29253" height="4.05422" fill="#C4C4C4"/>
<rect x="82.5309" y="48.6504" width="2.29253" height="4.05422" fill="#C4C4C4"/>
<rect x="84.8235" y="48.6504" width="2.29253" height="4.05422" fill="#C4C4C4"/>
<rect x="87.1158" y="48.6504" width="2.29253" height="4.05422" fill="#C4C4C4"/>
<rect x="89.4086" y="48.6504" width="2.29253" height="4.05422" fill="#C4C4C4"/>
<rect x="91.7009" y="48.6504" width="2.29253" height="4.05422" fill="#C4C4C4"/>
<rect x="93.9935" y="48.6504" width="2.29253" height="4.05422" fill="#C4C4C4"/>
<rect x="96.2861" y="48.6504" width="2.29253" height="4.05422" fill="#C4C4C4"/>
<rect x="98.5785" y="48.6504" width="2.29253" height="4.05422" fill="#C4C4C4"/>
<rect y="52.7051" width="2.29253" height="4.05422" fill="#C4C4C4"/>
<rect x="2.2926" y="52.7051" width="2.29253" height="4.05422" fill="#C4C4C4"/>
<rect x="4.58496" y="52.7051" width="2.29253" height="4.05422" fill="#C4C4C4"/>
<rect x="6.87756" y="52.7051" width="2.29253" height="4.05422" fill="#C4C4C4"/>
<rect x="9.17017" y="52.7051" width="2.29253" height="4.05422" fill="#C4C4C4"/>
<rect x="11.4625" y="52.7051" width="2.29253" height="4.05422" fill="#C4C4C4"/>
<rect x="13.7552" y="52.7051" width="2.29253" height="4.05422" fill="#C4C4C4"/>
<rect x="64.1908" y="52.7051" width="2.29253" height="4.05422" fill="#C4C4C4"/>
<rect x="66.4832" y="52.7051" width="2.29253" height="4.05422" fill="#C4C4C4"/>
<rect x="68.7758" y="52.7051" width="2.29253" height="4.05422" fill="#C4C4C4"/>
<rect x="71.0684" y="52.7051" width="2.29253" height="4.05422" fill="#C4C4C4"/>
<rect x="73.3607" y="52.7051" width="2.29253" height="4.05422" fill="#C4C4C4"/>
<rect x="75.6533" y="52.7051" width="2.29253" height="4.05422" fill="#C4C4C4"/>
<rect x="77.9459" y="52.7051" width="2.29253" height="4.05422" fill="#C4C4C4"/>
<rect x="80.2383" y="52.7051" width="2.29253" height="4.05422" fill="#C4C4C4"/>
<rect x="82.5309" y="52.7051" width="2.29253" height="4.05422" fill="#C4C4C4"/>
<rect x="84.8235" y="52.7051" width="2.29253" height="4.05422" fill="#C4C4C4"/>
<rect x="87.1158" y="52.7051" width="2.29253" height="4.05422" fill="#C4C4C4"/>
<rect x="89.4086" y="52.7051" width="2.29253" height="4.05422" fill="#C4C4C4"/>
<rect x="91.7009" y="52.7051" width="2.29253" height="4.05422" fill="#C4C4C4"/>
<rect x="93.9935" y="52.7051" width="2.29253" height="4.05422" fill="#C4C4C4"/>
<rect x="96.2861" y="52.7051" width="2.29253" height="4.05422" fill="#C4C4C4"/>
<rect x="98.5785" y="52.7051" width="2.29253" height="4.05422" fill="#C4C4C4"/>
<rect y="56.7598" width="2.29253" height="4.05422" fill="#C4C4C4"/>
<rect x="2.2926" y="56.7598" width="2.29253" height="4.05422" fill="#C4C4C4"/>
<rect x="4.58496" y="56.7598" width="2.29253" height="4.05422" fill="#C4C4C4"/>
<rect x="6.87756" y="56.7598" width="2.29253" height="4.05422" fill="#C4C4C4"/>
<rect x="9.17017" y="56.7598" width="2.29253" height="4.05422" fill="#C4C4C4"/>
<rect x="11.4625" y="56.7598" width="2.29253" height="4.05422" fill="#C4C4C4"/>
<rect x="13.7552" y="56.7598" width="2.29253" height="4.05422" fill="#C4C4C4"/>
<rect x="64.1908" y="56.7598" width="2.29253" height="4.05422" fill="#C4C4C4"/>
<rect x="66.4832" y="56.7598" width="2.29253" height="4.05422" fill="#C4C4C4"/>
<rect x="68.7758" y="56.7598" width="2.29253" height="4.05422" fill="#C4C4C4"/>
<rect x="71.0684" y="56.7598" width="2.29253" height="4.05422" fill="#C4C4C4"/>
<rect x="73.3607" y="56.7598" width="2.29253" height="4.05422" fill="#C4C4C4"/>
<rect x="75.6533" y="56.7598" width="2.29253" height="4.05422" fill="#C4C4C4"/>
<rect x="77.9459" y="56.7598" width="2.29253" height="4.05422" fill="#C4C4C4"/>
<rect x="80.2383" y="56.7598" width="2.29253" height="4.05422" fill="#C4C4C4"/>
<rect x="82.5309" y="56.7598" width="2.29253" height="4.05422" fill="#C4C4C4"/>
<rect x="84.8235" y="56.7598" width="2.29253" height="4.05422" fill="#C4C4C4"/>
<rect x="87.1158" y="56.7598" width="2.29253" height="4.05422" fill="#C4C4C4"/>
<rect x="89.4086" y="56.7598" width="2.29253" height="4.05422" fill="#C4C4C4"/>
<rect x="91.7009" y="56.7598" width="2.29253" height="4.05422" fill="#C4C4C4"/>
<rect x="93.9935" y="56.7598" width="2.29253" height="4.05422" fill="#C4C4C4"/>
<rect x="96.2861" y="56.7598" width="2.29253" height="4.05422" fill="#C4C4C4"/>
<rect x="98.5785" y="56.7598" width="2.29253" height="4.05422" fill="#C4C4C4"/>
<rect y="60.8135" width="2.29253" height="4.05422" fill="#C4C4C4"/>
<rect x="2.2926" y="60.8135" width="2.29253" height="4.05422" fill="#C4C4C4"/>
<rect x="4.58496" y="60.8135" width="2.29253" height="4.05422" fill="#C4C4C4"/>
<rect x="6.87756" y="60.8135" width="2.29253" height="4.05422" fill="#C4C4C4"/>
<rect x="9.17017" y="60.8135" width="2.29253" height="4.05422" fill="#C4C4C4"/>
<rect x="11.4625" y="60.8135" width="2.29253" height="4.05422" fill="#C4C4C4"/>
<rect x="13.7552" y="60.8135" width="2.29253" height="4.05422" fill="#C4C4C4"/>
<rect x="64.1908" y="60.8135" width="2.29253" height="4.05422" fill="#C4C4C4"/>
<rect x="66.4832" y="60.8135" width="2.29253" height="4.05422" fill="#C4C4C4"/>
<rect x="68.7758" y="60.8135" width="2.29253" height="4.05422" fill="#C4C4C4"/>
<rect x="71.0684" y="60.8135" width="2.29253" height="4.05422" fill="#C4C4C4"/>
<rect x="73.3607" y="60.8135" width="2.29253" height="4.05422" fill="#C4C4C4"/>
<rect x="75.6533" y="60.8135" width="2.29253" height="4.05422" fill="#C4C4C4"/>
<rect x="77.9459" y="60.8135" width="2.29253" height="4.05422" fill="#C4C4C4"/>
<rect x="80.2383" y="60.8135" width="2.29253" height="4.05422" fill="#C4C4C4"/>
<rect x="82.5309" y="60.8135" width="2.29253" height="4.05422" fill="#C4C4C4"/>
<rect x="84.8235" y="60.8135" width="2.29253" height="4.05422" fill="#C4C4C4"/>
<rect x="87.1158" y="60.8135" width="2.29253" height="4.05422" fill="#C4C4C4"/>
<rect x="89.4086" y="60.8135" width="2.29253" height="4.05422" fill="#C4C4C4"/>
<rect x="91.7009" y="60.8135" width="2.29253" height="4.05422" fill="#C4C4C4"/>
<rect x="93.9935" y="60.8135" width="2.29253" height="4.05422" fill="#C4C4C4"/>
<rect x="96.2861" y="60.8135" width="2.29253" height="4.05422" fill="#C4C4C4"/>
<rect x="98.5785" y="60.8135" width="2.29253" height="4.05422" fill="#C4C4C4"/>
<rect y="64.8672" width="2.29253" height="4.05422" fill="#C4C4C4"/>
<rect x="2.2926" y="64.8672" width="2.29253" height="4.05422" fill="#C4C4C4"/>
<rect x="4.58496" y="64.8672" width="2.29253" height="4.05422" fill="#C4C4C4"/>
<rect x="6.87756" y="64.8672" width="2.29253" height="4.05422" fill="#C4C4C4"/>
<rect x="9.17017" y="64.8672" width="2.29253" height="4.05422" fill="#C4C4C4"/>
<rect x="11.4625" y="64.8672" width="2.29253" height="4.05422" fill="#C4C4C4"/>
<rect x="13.7552" y="64.8672" width="2.29253" height="4.05422" fill="#C4C4C4"/>
<rect x="87.1158" y="64.8672" width="2.29253" height="4.05422" fill="#C4C4C4"/>
<rect x="89.4086" y="64.8672" width="2.29253" height="4.05422" fill="#C4C4C4"/>
<rect x="91.7009" y="64.8672" width="2.29253" height="4.05422" fill="#C4C4C4"/>
<rect x="93.9935" y="64.8672" width="2.29253" height="4.05422" fill="#C4C4C4"/>
<rect x="96.2861" y="64.8672" width="2.29253" height="4.05422" fill="#C4C4C4"/>
<rect x="98.5785" y="64.8672" width="2.29253" height="4.05422" fill="#C4C4C4"/>
<rect y="68.9219" width="2.29253" height="4.05422" fill="#C4C4C4"/>
<rect x="2.2926" y="68.9219" width="2.29253" height="4.05422" fill="#C4C4C4"/>
<rect x="4.58496" y="68.9219" width="2.29253" height="4.05422" fill="#C4C4C4"/>
<rect x="6.87756" y="68.9219" width="2.29253" height="4.05422" fill="#C4C4C4"/>
<rect x="9.17017" y="68.9219" width="2.29253" height="4.05422" fill="#C4C4C4"/>
<rect x="11.4625" y="68.9219" width="2.29253" height="4.05422" fill="#C4C4C4"/>
<rect x="13.7552" y="68.9219" width="2.29253" height="4.05422" fill="#C4C4C4"/>
<rect x="87.1158" y="68.9219" width="2.29253" height="4.05422" fill="#C4C4C4"/>
<rect x="89.4086" y="68.9219" width="2.29253" height="4.05422" fill="#C4C4C4"/>
<rect x="91.7009" y="68.9219" width="2.29253" height="4.05422" fill="#C4C4C4"/>
<rect x="93.9935" y="68.9219" width="2.29253" height="4.05422" fill="#C4C4C4"/>
<rect x="96.2861" y="68.9219" width="2.29253" height="4.05422" fill="#C4C4C4"/>
<rect x="98.5785" y="68.9219" width="2.29253" height="4.05422" fill="#C4C4C4"/>
<rect y="72.9756" width="2.29253" height="4.05422" fill="#C4C4C4"/>
<rect x="2.2926" y="72.9756" width="2.29253" height="4.05422" fill="#C4C4C4"/>
<rect x="4.58496" y="72.9756" width="2.29253" height="4.05422" fill="#C4C4C4"/>
<rect x="6.87756" y="72.9756" width="2.29253" height="4.05422" fill="#C4C4C4"/>
<rect x="9.17017" y="72.9756" width="2.29253" height="4.05422" fill="#C4C4C4"/>
<rect x="11.4625" y="72.9756" width="2.29253" height="4.05422" fill="#C4C4C4"/>
<rect x="13.7552" y="72.9756" width="2.29253" height="4.05422" fill="#C4C4C4"/>
<rect x="87.1158" y="72.9756" width="2.29253" height="4.05422" fill="#C4C4C4"/>
<rect x="89.4086" y="72.9756" width="2.29253" height="4.05422" fill="#C4C4C4"/>
<rect x="91.7009" y="72.9756" width="2.29253" height="4.05422" fill="#C4C4C4"/>
<rect x="93.9935" y="72.9756" width="2.29253" height="4.05422" fill="#C4C4C4"/>
<rect x="96.2861" y="72.9756" width="2.29253" height="4.05422" fill="#C4C4C4"/>
<rect x="98.5785" y="72.9756" width="2.29253" height="4.05422" fill="#C4C4C4"/>
<rect y="77.0303" width="2.29253" height="4.05422" fill="#C4C4C4"/>
<rect x="2.2926" y="77.0303" width="2.29253" height="4.05422" fill="#C4C4C4"/>
<rect x="4.58496" y="77.0303" width="2.29253" height="4.05422" fill="#C4C4C4"/>
<rect x="6.87756" y="77.0303" width="2.29253" height="4.05422" fill="#C4C4C4"/>
<rect x="9.17017" y="77.0303" width="2.29253" height="4.05422" fill="#C4C4C4"/>
<rect x="11.4625" y="77.0303" width="2.29253" height="4.05422" fill="#C4C4C4"/>
<rect x="13.7552" y="77.0303" width="2.29253" height="4.05422" fill="#C4C4C4"/>
<rect x="87.1158" y="77.0303" width="2.29253" height="4.05422" fill="#C4C4C4"/>
<rect x="89.4086" y="77.0303" width="2.29253" height="4.05422" fill="#C4C4C4"/>
<rect x="91.7009" y="77.0303" width="2.29253" height="4.05422" fill="#C4C4C4"/>
<rect x="93.9935" y="77.0303" width="2.29253" height="4.05422" fill="#C4C4C4"/>
<rect x="96.2861" y="77.0303" width="2.29253" height="4.05422" fill="#C4C4C4"/>
<rect x="98.5785" y="77.0303" width="2.29253" height="4.05422" fill="#C4C4C4"/>
<rect y="81.085" width="2.29253" height="4.05422" fill="#C4C4C4"/>
<rect x="2.2926" y="81.085" width="2.29253" height="4.05422" fill="#C4C4C4"/>
<rect x="4.58496" y="81.085" width="2.29253" height="4.05422" fill="#C4C4C4"/>
<rect x="6.87756" y="81.085" width="2.29253" height="4.05422" fill="#C4C4C4"/>
<rect x="9.17017" y="81.085" width="2.29253" height="4.05422" fill="#C4C4C4"/>
<rect x="11.4625" y="81.085" width="2.29253" height="4.05422" fill="#C4C4C4"/>
<rect x="13.7552" y="81.085" width="2.29253" height="4.05422" fill="#C4C4C4"/>
<rect x="87.1158" y="81.085" width="2.29253" height="4.05422" fill="#C4C4C4"/>
<rect x="89.4086" y="81.085" width="2.29253" height="4.05422" fill="#C4C4C4"/>
<rect x="91.7009" y="81.085" width="2.29253" height="4.05422" fill="#C4C4C4"/>
<rect x="93.9935" y="81.085" width="2.29253" height="4.05422" fill="#C4C4C4"/>
<rect x="96.2861" y="81.085" width="2.29253" height="4.05422" fill="#C4C4C4"/>
<rect x="98.5785" y="81.085" width="2.29253" height="4.05422" fill="#C4C4C4"/>
<rect y="85.1387" width="2.29253" height="4.05422" fill="#C4C4C4"/>
<rect x="2.2926" y="85.1387" width="2.29253" height="4.05422" fill="#C4C4C4"/>
<rect x="4.58496" y="85.1387" width="2.29253" height="4.05422" fill="#C4C4C4"/>
<rect x="6.87756" y="85.1387" width="2.29253" height="4.05422" fill="#C4C4C4"/>
<rect x="9.17017" y="85.1387" width="2.29253" height="4.05422" fill="#C4C4C4"/>
<rect x="11.4625" y="85.1387" width="2.29253" height="4.05422" fill="#C4C4C4"/>
<rect x="13.7552" y="85.1387" width="2.29253" height="4.05422" fill="#C4C4C4"/>
<rect x="87.1158" y="85.1387" width="2.29253" height="4.05422" fill="#C4C4C4"/>
<rect x="89.4086" y="85.1387" width="2.29253" height="4.05422" fill="#C4C4C4"/>
<rect x="91.7009" y="85.1387" width="2.29253" height="4.05422" fill="#C4C4C4"/>
<rect x="93.9935" y="85.1387" width="2.29253" height="4.05422" fill="#C4C4C4"/>
<rect x="96.2861" y="85.1387" width="2.29253" height="4.05422" fill="#C4C4C4"/>
<rect x="98.5785" y="85.1387" width="2.29253" height="4.05422" fill="#C4C4C4"/>
<rect y="89.1934" width="2.29253" height="4.05422" fill="#C4C4C4"/>
<rect x="2.2926" y="89.1934" width="2.29253" height="4.05422" fill="#C4C4C4"/>
<rect x="4.58496" y="89.1934" width="2.29253" height="4.05422" fill="#C4C4C4"/>
<rect x="6.87756" y="89.1934" width="2.29253" height="4.05422" fill="#C4C4C4"/>
<rect x="9.17017" y="89.1934" width="2.29253" height="4.05422" fill="#C4C4C4"/>
<rect x="11.4625" y="89.1934" width="2.29253" height="4.05422" fill="#C4C4C4"/>
<rect x="13.7552" y="89.1934" width="2.29253" height="4.05422" fill="#C4C4C4"/>
<rect x="87.1158" y="89.1934" width="2.29253" height="4.05422" fill="#C4C4C4"/>
<rect x="89.4086" y="89.1934" width="2.29253" height="4.05422" fill="#C4C4C4"/>
<rect x="91.7009" y="89.1934" width="2.29253" height="4.05422" fill="#C4C4C4"/>
<rect x="93.9935" y="89.1934" width="2.29253" height="4.05422" fill="#C4C4C4"/>
<rect x="96.2861" y="89.1934" width="2.29253" height="4.05422" fill="#C4C4C4"/>
<rect x="98.5785" y="89.1934" width="2.29253" height="4.05422" fill="#C4C4C4"/>
<rect y="93.2471" width="2.29253" height="4.05422" fill="#C4C4C4"/>
<rect x="2.2926" y="93.2471" width="2.29253" height="4.05422" fill="#C4C4C4"/>
<rect x="4.58496" y="93.2471" width="2.29253" height="4.05422" fill="#C4C4C4"/>
<rect x="6.87756" y="93.2471" width="2.29253" height="4.05422" fill="#C4C4C4"/>
<rect x="9.17017" y="93.2471" width="2.29253" height="4.05422" fill="#C4C4C4"/>
<rect x="11.4625" y="93.2471" width="2.29253" height="4.05422" fill="#C4C4C4"/>
<rect x="13.7552" y="93.2471" width="2.29253" height="4.05422" fill="#C4C4C4"/>
<rect x="87.1158" y="93.2471" width="2.29253" height="4.05422" fill="#C4C4C4"/>
<rect x="89.4086" y="93.2471" width="2.29253" height="4.05422" fill="#C4C4C4"/>
<rect x="91.7009" y="93.2471" width="2.29253" height="4.05422" fill="#C4C4C4"/>
<rect x="93.9935" y="93.2471" width="2.29253" height="4.05422" fill="#C4C4C4"/>
<rect x="96.2861" y="93.2471" width="2.29253" height="4.05422" fill="#C4C4C4"/>
<rect x="98.5785" y="93.2471" width="2.29253" height="4.05422" fill="#C4C4C4"/>
<rect y="97.3008" width="2.29253" height="4.05422" fill="#C4C4C4"/>
<rect x="2.2926" y="97.3008" width="2.29253" height="4.05422" fill="#C4C4C4"/>
<rect x="4.58496" y="97.3008" width="2.29253" height="4.05422" fill="#C4C4C4"/>
<rect x="6.87756" y="97.3008" width="2.29253" height="4.05422" fill="#C4C4C4"/>
<rect x="9.17017" y="97.3008" width="2.29253" height="4.05422" fill="#C4C4C4"/>
<rect x="11.4625" y="97.3008" width="2.29253" height="4.05422" fill="#C4C4C4"/>
<rect x="13.7552" y="97.3008" width="2.29253" height="4.05422" fill="#C4C4C4"/>
<rect x="87.1158" y="97.3008" width="2.29253" height="4.05422" fill="#C4C4C4"/>
<rect x="89.4086" y="97.3008" width="2.29253" height="4.05422" fill="#C4C4C4"/>
<rect x="91.7009" y="97.3008" width="2.29253" height="4.05422" fill="#C4C4C4"/>
<rect x="93.9935" y="97.3008" width="2.29253" height="4.05422" fill="#C4C4C4"/>
<rect x="96.2861" y="97.3008" width="2.29253" height="4.05422" fill="#C4C4C4"/>
<rect x="98.5785" y="97.3008" width="2.29253" height="4.05422" fill="#C4C4C4"/>
<rect y="101.355" width="2.29253" height="4.05422" fill="#C4C4C4"/>
<rect x="2.2926" y="101.355" width="2.29253" height="4.05422" fill="#C4C4C4"/>
<rect x="4.58496" y="101.355" width="2.29253" height="4.05422" fill="#C4C4C4"/>
<rect x="6.87756" y="101.355" width="2.29253" height="4.05422" fill="#C4C4C4"/>
<rect x="9.17017" y="101.355" width="2.29253" height="4.05422" fill="#C4C4C4"/>
<rect x="11.4625" y="101.355" width="2.29253" height="4.05422" fill="#C4C4C4"/>
<rect x="13.7552" y="101.355" width="2.29253" height="4.05422" fill="#C4C4C4"/>
<rect x="87.1158" y="101.355" width="2.29253" height="4.05422" fill="#C4C4C4"/>
<rect x="89.4086" y="101.355" width="2.29253" height="4.05422" fill="#C4C4C4"/>
<rect x="91.7009" y="101.355" width="2.29253" height="4.05422" fill="#C4C4C4"/>
<rect x="93.9935" y="101.355" width="2.29253" height="4.05422" fill="#C4C4C4"/>
<rect x="96.2861" y="101.355" width="2.29253" height="4.05422" fill="#C4C4C4"/>
<rect x="98.5785" y="101.355" width="2.29253" height="4.05422" fill="#C4C4C4"/>
<rect y="105.409" width="2.29253" height="4.05422" fill="#C4C4C4"/>
<rect x="2.2926" y="105.409" width="2.29253" height="4.05422" fill="#C4C4C4"/>
<rect x="4.58496" y="105.409" width="2.29253" height="4.05422" fill="#C4C4C4"/>
<rect x="6.87756" y="105.409" width="2.29253" height="4.05422" fill="#C4C4C4"/>
<rect x="9.17017" y="105.409" width="2.29253" height="4.05422" fill="#C4C4C4"/>
<rect x="11.4625" y="105.409" width="2.29253" height="4.05422" fill="#C4C4C4"/>
<rect x="13.7552" y="105.409" width="2.29253" height="4.05422" fill="#C4C4C4"/>
<rect x="87.1158" y="105.409" width="2.29253" height="4.05422" fill="#C4C4C4"/>
<rect x="89.4086" y="105.409" width="2.29253" height="4.05422" fill="#C4C4C4"/>
<rect x="91.7009" y="105.409" width="2.29253" height="4.05422" fill="#C4C4C4"/>
<rect x="93.9935" y="105.409" width="2.29253" height="4.05422" fill="#C4C4C4"/>
<rect x="96.2861" y="105.409" width="2.29253" height="4.05422" fill="#C4C4C4"/>
<rect x="98.5785" y="105.409" width="2.29253" height="4.05422" fill="#C4C4C4"/>
<rect y="109.464" width="2.29253" height="4.05422" fill="#C4C4C4"/>
<rect x="2.2926" y="109.464" width="2.29253" height="4.05422" fill="#C4C4C4"/>
<rect x="4.58496" y="109.464" width="2.29253" height="4.05422" fill="#C4C4C4"/>
<rect x="6.87756" y="109.464" width="2.29253" height="4.05422" fill="#C4C4C4"/>
<rect x="9.17017" y="109.464" width="2.29253" height="4.05422" fill="#C4C4C4"/>
<rect x="11.4625" y="109.464" width="2.29253" height="4.05422" fill="#C4C4C4"/>
<rect x="13.7552" y="109.464" width="2.29253" height="4.05422" fill="#C4C4C4"/>
<rect x="87.1158" y="109.464" width="2.29253" height="4.05422" fill="#C4C4C4"/>
<rect x="89.4086" y="109.464" width="2.29253" height="4.05422" fill="#C4C4C4"/>
<rect x="91.7009" y="109.464" width="2.29253" height="4.05422" fill="#C4C4C4"/>
<rect x="93.9935" y="109.464" width="2.29253" height="4.05422" fill="#C4C4C4"/>
<rect x="96.2861" y="109.464" width="2.29253" height="4.05422" fill="#C4C4C4"/>
<rect x="98.5785" y="109.464" width="2.29253" height="4.05422" fill="#C4C4C4"/>
<rect y="113.518" width="2.29253" height="4.05422" fill="#C4C4C4"/>
<rect x="2.2926" y="113.518" width="2.29253" height="4.05422" fill="#C4C4C4"/>
<rect x="4.58496" y="113.518" width="2.29253" height="4.05422" fill="#C4C4C4"/>
<rect x="6.87756" y="113.518" width="2.29253" height="4.05422" fill="#C4C4C4"/>
<rect x="9.17017" y="113.518" width="2.29253" height="4.05422" fill="#C4C4C4"/>
<rect x="11.4625" y="113.518" width="2.29253" height="4.05422" fill="#C4C4C4"/>
<rect x="13.7552" y="113.518" width="2.29253" height="4.05422" fill="#C4C4C4"/>
<rect x="87.1158" y="113.518" width="2.29253" height="4.05422" fill="#C4C4C4"/>
<rect x="89.4086" y="113.518" width="2.29253" height="4.05422" fill="#C4C4C4"/>
<rect x="91.7009" y="113.518" width="2.29253" height="4.05422" fill="#C4C4C4"/>
<rect x="93.9935" y="113.518" width="2.29253" height="4.05422" fill="#C4C4C4"/>
<rect x="96.2861" y="113.518" width="2.29253" height="4.05422" fill="#C4C4C4"/>
<rect x="98.5785" y="113.518" width="2.29253" height="4.05422" fill="#C4C4C4"/>
<rect y="117.572" width="2.29253" height="4.05422" fill="#C4C4C4"/>
<rect x="2.2926" y="117.572" width="2.29253" height="4.05422" fill="#C4C4C4"/>
<rect x="4.58496" y="117.572" width="2.29253" height="4.05422" fill="#C4C4C4"/>
<rect x="6.87756" y="117.572" width="2.29253" height="4.05422" fill="#C4C4C4"/>
<rect x="9.17017" y="117.572" width="2.29253" height="4.05422" fill="#C4C4C4"/>
<rect x="11.4625" y="117.572" width="2.29253" height="4.05422" fill="#C4C4C4"/>
<rect x="13.7552" y="117.572" width="2.29253" height="4.05422" fill="#C4C4C4"/>
<rect x="87.1158" y="117.572" width="2.29253" height="4.05422" fill="#C4C4C4"/>
<rect x="89.4086" y="117.572" width="2.29253" height="4.05422" fill="#C4C4C4"/>
<rect x="91.7009" y="117.572" width="2.29253" height="4.05422" fill="#C4C4C4"/>
<rect x="93.9935" y="117.572" width="2.29253" height="4.05422" fill="#C4C4C4"/>
<rect x="96.2861" y="117.572" width="2.29253" height="4.05422" fill="#C4C4C4"/>
<rect x="98.5785" y="117.572" width="2.29253" height="4.05422" fill="#C4C4C4"/>
<rect y="121.627" width="2.29253" height="4.05422" fill="#C4C4C4"/>
<rect x="2.2926" y="121.627" width="2.29253" height="4.05422" fill="#C4C4C4"/>
<rect x="4.58496" y="121.627" width="2.29253" height="4.05422" fill="#C4C4C4"/>
<rect x="6.87756" y="121.627" width="2.29253" height="4.05422" fill="#C4C4C4"/>
<rect x="9.17017" y="121.627" width="2.29253" height="4.05422" fill="#C4C4C4"/>
<rect x="11.4625" y="121.627" width="2.29253" height="4.05422" fill="#C4C4C4"/>
<rect x="13.7552" y="121.627" width="2.29253" height="4.05422" fill="#C4C4C4"/>
<rect x="87.1158" y="121.627" width="2.29253" height="4.05422" fill="#C4C4C4"/>
<rect x="89.4086" y="121.627" width="2.29253" height="4.05422" fill="#C4C4C4"/>
<rect x="91.7009" y="121.627" width="2.29253" height="4.05422" fill="#C4C4C4"/>
<rect x="93.9935" y="121.627" width="2.29253" height="4.05422" fill="#C4C4C4"/>
<rect x="96.2861" y="121.627" width="2.29253" height="4.05422" fill="#C4C4C4"/>
<rect x="98.5785" y="121.627" width="2.29253" height="4.05422" fill="#C4C4C4"/>
<rect y="125.681" width="2.29253" height="4.05422" fill="#C4C4C4"/>
<rect x="2.2926" y="125.681" width="2.29253" height="4.05422" fill="#C4C4C4"/>
<rect x="4.58496" y="125.681" width="2.29253" height="4.05422" fill="#C4C4C4"/>
<rect x="6.87756" y="125.681" width="2.29253" height="4.05422" fill="#C4C4C4"/>
<rect x="9.17017" y="125.681" width="2.29253" height="4.05422" fill="#C4C4C4"/>
<rect x="11.4625" y="125.681" width="2.29253" height="4.05422" fill="#C4C4C4"/>
<rect x="13.7552" y="125.681" width="2.29253" height="4.05422" fill="#C4C4C4"/>
<rect x="87.1158" y="125.681" width="2.29253" height="4.05422" fill="#C4C4C4"/>
<rect x="89.4086" y="125.681" width="2.29253" height="4.05422" fill="#C4C4C4"/>
<rect x="91.7009" y="125.681" width="2.29253" height="4.05422" fill="#C4C4C4"/>
<rect x="93.9935" y="125.681" width="2.29253" height="4.05422" fill="#C4C4C4"/>
<rect x="96.2861" y="125.681" width="2.29253" height="4.05422" fill="#C4C4C4"/>
<rect x="98.5785" y="125.681" width="2.29253" height="4.05422" fill="#C4C4C4"/>
<rect y="129.735" width="2.29253" height="4.05422" fill="#C4C4C4"/>
<rect x="2.2926" y="129.735" width="2.29253" height="4.05422" fill="#C4C4C4"/>
<rect x="4.58496" y="129.735" width="2.29253" height="4.05422" fill="#C4C4C4"/>
<rect x="6.87756" y="129.735" width="2.29253" height="4.05422" fill="#C4C4C4"/>
<rect x="9.17017" y="129.735" width="2.29253" height="4.05422" fill="#C4C4C4"/>
<rect x="11.4625" y="129.735" width="2.29253" height="4.05422" fill="#C4C4C4"/>
<rect x="13.7552" y="129.735" width="2.29253" height="4.05422" fill="#C4C4C4"/>
<rect x="87.1158" y="129.735" width="2.29253" height="4.05422" fill="#C4C4C4"/>
<rect x="89.4086" y="129.735" width="2.29253" height="4.05422" fill="#C4C4C4"/>
<rect x="91.7009" y="129.735" width="2.29253" height="4.05422" fill="#C4C4C4"/>
<rect x="93.9935" y="129.735" width="2.29253" height="4.05422" fill="#C4C4C4"/>
<rect x="96.2861" y="129.735" width="2.29253" height="4.05422" fill="#C4C4C4"/>
<rect x="98.5785" y="129.735" width="2.29253" height="4.05422" fill="#C4C4C4"/>
<rect y="133.789" width="2.29253" height="4.05422" fill="#C4C4C4"/>
<rect x="2.2926" y="133.789" width="2.29253" height="4.05422" fill="#C4C4C4"/>
<rect x="4.58496" y="133.789" width="2.29253" height="4.05422" fill="#C4C4C4"/>
<rect x="6.87756" y="133.789" width="2.29253" height="4.05422" fill="#C4C4C4"/>
<rect x="9.17017" y="133.789" width="2.29253" height="4.05422" fill="#C4C4C4"/>
<rect x="11.4625" y="133.789" width="2.29253" height="4.05422" fill="#C4C4C4"/>
<rect x="13.7552" y="133.789" width="2.29253" height="4.05422" fill="#C4C4C4"/>
<rect x="87.1158" y="133.789" width="2.29253" height="4.05422" fill="#C4C4C4"/>
<rect x="89.4086" y="133.789" width="2.29253" height="4.05422" fill="#C4C4C4"/>
<rect x="91.7009" y="133.789" width="2.29253" height="4.05422" fill="#C4C4C4"/>
<rect x="93.9935" y="133.789" width="2.29253" height="4.05422" fill="#C4C4C4"/>
<rect x="96.2861" y="133.789" width="2.29253" height="4.05422" fill="#C4C4C4"/>
<rect x="98.5785" y="133.789" width="2.29253" height="4.05422" fill="#C4C4C4"/>
<rect y="137.844" width="2.29253" height="4.05422" fill="#C4C4C4"/>
<rect x="2.2926" y="137.844" width="2.29253" height="4.05422" fill="#C4C4C4"/>
<rect x="4.58496" y="137.844" width="2.29253" height="4.05422" fill="#C4C4C4"/>
<rect x="6.87756" y="137.844" width="2.29253" height="4.05422" fill="#C4C4C4"/>
<rect x="9.17017" y="137.844" width="2.29253" height="4.05422" fill="#C4C4C4"/>
<rect x="11.4625" y="137.844" width="2.29253" height="4.05422" fill="#C4C4C4"/>
<rect x="13.7552" y="137.844" width="2.29253" height="4.05422" fill="#C4C4C4"/>
<rect x="87.1158" y="137.844" width="2.29253" height="4.05422" fill="#C4C4C4"/>
<rect x="89.4086" y="137.844" width="2.29253" height="4.05422" fill="#C4C4C4"/>
<rect x="91.7009" y="137.844" width="2.29253" height="4.05422" fill="#C4C4C4"/>
<rect x="93.9935" y="137.844" width="2.29253" height="4.05422" fill="#C4C4C4"/>
<rect x="96.2861" y="137.844" width="2.29253" height="4.05422" fill="#C4C4C4"/>
<rect x="98.5785" y="137.844" width="2.29253" height="4.05422" fill="#C4C4C4"/>
<rect y="141.897" width="2.29253" height="4.05422" fill="#C4C4C4"/>
<rect x="2.2926" y="141.897" width="2.29253" height="4.05422" fill="#C4C4C4"/>
<rect x="4.58496" y="141.897" width="2.29253" height="4.05422" fill="#C4C4C4"/>
<rect x="6.87756" y="141.897" width="2.29253" height="4.05422" fill="#C4C4C4"/>
<rect x="9.17017" y="141.897" width="2.29253" height="4.05422" fill="#C4C4C4"/>
<rect x="11.4625" y="141.897" width="2.29253" height="4.05422" fill="#C4C4C4"/>
<rect x="13.7552" y="141.897" width="2.29253" height="4.05422" fill="#C4C4C4"/>
<rect x="87.1158" y="141.897" width="2.29253" height="4.05422" fill="#C4C4C4"/>
<rect x="89.4086" y="141.897" width="2.29253" height="4.05422" fill="#C4C4C4"/>
<rect x="91.7009" y="141.897" width="2.29253" height="4.05422" fill="#C4C4C4"/>
<rect x="93.9935" y="141.897" width="2.29253" height="4.05422" fill="#C4C4C4"/>
<rect x="96.2861" y="141.897" width="2.29253" height="4.05422" fill="#C4C4C4"/>
<rect x="98.5785" y="141.897" width="2.29253" height="4.05422" fill="#C4C4C4"/>
<rect y="145.951" width="2.29253" height="4.05422" fill="#C4C4C4"/>
<rect x="2.2926" y="145.951" width="2.29253" height="4.05422" fill="#C4C4C4"/>
<rect x="4.58496" y="145.951" width="2.29253" height="4.05422" fill="#C4C4C4"/>
<rect x="6.87756" y="145.951" width="2.29253" height="4.05422" fill="#C4C4C4"/>
<rect x="9.17017" y="145.951" width="2.29253" height="4.05422" fill="#C4C4C4"/>
<rect x="11.4625" y="145.951" width="2.29253" height="4.05422" fill="#C4C4C4"/>
<rect x="13.7552" y="145.951" width="2.29253" height="4.05422" fill="#C4C4C4"/>
<rect x="87.1158" y="145.951" width="2.29253" height="4.05422" fill="#C4C4C4"/>
<rect x="89.4086" y="145.951" width="2.29253" height="4.05422" fill="#C4C4C4"/>
<rect x="91.7009" y="145.951" width="2.29253" height="4.05422" fill="#C4C4C4"/>
<rect x="93.9935" y="145.951" width="2.29253" height="4.05422" fill="#C4C4C4"/>
<rect x="96.2861" y="145.951" width="2.29253" height="4.05422" fill="#C4C4C4"/>
<rect x="98.5785" y="145.951" width="2.29253" height="4.05422" fill="#C4C4C4"/>
<rect y="150.007" width="2.29253" height="4.05422" fill="#C4C4C4"/>
<rect x="2.2926" y="150.007" width="2.29253" height="4.05422" fill="#C4C4C4"/>
<rect x="4.58496" y="150.007" width="2.29253" height="4.05422" fill="#C4C4C4"/>
<rect x="6.87756" y="150.007" width="2.29253" height="4.05422" fill="#C4C4C4"/>
<rect x="9.17017" y="150.007" width="2.29253" height="4.05422" fill="#C4C4C4"/>
<rect x="11.4625" y="150.007" width="2.29253" height="4.05422" fill="#C4C4C4"/>
<rect x="13.7552" y="150.007" width="2.29253" height="4.05422" fill="#C4C4C4"/>
<rect x="87.1158" y="150.007" width="2.29253" height="4.05422" fill="#C4C4C4"/>
<rect x="89.4086" y="150.007" width="2.29253" height="4.05422" fill="#C4C4C4"/>
<rect x="91.7009" y="150.007" width="2.29253" height="4.05422" fill="#C4C4C4"/>
<rect x="93.9935" y="150.007" width="2.29253" height="4.05422" fill="#C4C4C4"/>
<rect x="96.2861" y="150.007" width="2.29253" height="4.05422" fill="#C4C4C4"/>
<rect x="98.5785" y="150.007" width="2.29253" height="4.05422" fill="#C4C4C4"/>
<rect y="154.061" width="2.29253" height="4.05422" fill="#C4C4C4"/>
<rect x="2.2926" y="154.061" width="2.29253" height="4.05422" fill="#C4C4C4"/>
<rect x="4.58496" y="154.061" width="2.29253" height="4.05422" fill="#C4C4C4"/>
<rect x="6.87756" y="154.061" width="2.29253" height="4.05422" fill="#C4C4C4"/>
<rect x="9.17017" y="154.061" width="2.29253" height="4.05422" fill="#C4C4C4"/>
<rect x="11.4625" y="154.061" width="2.29253" height="4.05422" fill="#C4C4C4"/>
<rect x="13.7552" y="154.061" width="2.29253" height="4.05422" fill="#C4C4C4"/>
<rect x="16.0476" y="154.061" width="2.29253" height="4.05422" fill="#C4C4C4"/>
<rect x="18.3402" y="154.061" width="2.29253" height="4.05422" fill="#C4C4C4"/>
<rect x="20.6328" y="154.061" width="2.29253" height="4.05422" fill="#C4C4C4"/>
<rect x="22.9252" y="154.061" width="2.29253" height="4.05422" fill="#C4C4C4"/>
<rect x="25.2178" y="154.061" width="2.29253" height="4.05422" fill="#C4C4C4"/>
<rect x="27.5104" y="154.061" width="2.29253" height="4.05422" fill="#C4C4C4"/>
<rect x="29.8027" y="154.061" width="2.29253" height="4.05422" fill="#C4C4C4"/>
<rect x="32.0953" y="154.061" width="2.29253" height="4.05422" fill="#C4C4C4"/>
<rect x="34.3879" y="154.061" width="2.29253" height="4.05422" fill="#C4C4C4"/>
<rect x="36.6803" y="154.061" width="2.29253" height="4.05422" fill="#C4C4C4"/>
<rect x="38.973" y="154.061" width="2.29253" height="4.05422" fill="#C4C4C4"/>
<rect x="41.2654" y="154.061" width="2.29253" height="4.05422" fill="#C4C4C4"/>
<rect x="43.558" y="154.061" width="2.29253" height="4.05422" fill="#C4C4C4"/>
<rect x="45.8506" y="154.061" width="2.29253" height="4.05422" fill="#C4C4C4"/>
<rect x="48.1429" y="154.061" width="2.29253" height="4.05422" fill="#C4C4C4"/>
<rect x="50.4355" y="154.061" width="2.29253" height="4.05422" fill="#C4C4C4"/>
<rect x="52.7281" y="154.061" width="2.29253" height="4.05422" fill="#C4C4C4"/>
<rect x="55.0205" y="154.061" width="2.29253" height="4.05422" fill="#C4C4C4"/>
<rect x="57.3131" y="154.061" width="2.29253" height="4.05422" fill="#C4C4C4"/>
<rect x="59.6057" y="154.061" width="2.29253" height="4.05422" fill="#C4C4C4"/>
<rect x="61.8981" y="154.061" width="2.29253" height="4.05422" fill="#C4C4C4"/>
<rect x="64.1908" y="154.061" width="2.29253" height="4.05422" fill="#C4C4C4"/>
<rect x="66.4832" y="154.061" width="2.29253" height="4.05422" fill="#C4C4C4"/>
<rect x="68.7758" y="154.061" width="2.29253" height="4.05422" fill="#C4C4C4"/>
<rect x="71.0684" y="154.061" width="2.29253" height="4.05422" fill="#C4C4C4"/>
<rect x="73.3607" y="154.061" width="2.29253" height="4.05422" fill="#C4C4C4"/>
<rect x="75.6533" y="154.061" width="2.29253" height="4.05422" fill="#C4C4C4"/>
<rect x="77.9459" y="154.061" width="2.29253" height="4.05422" fill="#C4C4C4"/>
<rect x="80.2383" y="154.061" width="2.29253" height="4.05422" fill="#C4C4C4"/>
<rect x="82.5309" y="154.061" width="2.29253" height="4.05422" fill="#C4C4C4"/>
<rect x="84.8235" y="154.061" width="2.29253" height="4.05422" fill="#C4C4C4"/>
<rect x="87.1158" y="154.061" width="2.29253" height="4.05422" fill="#C4C4C4"/>
<rect x="89.4086" y="154.061" width="2.29253" height="4.05422" fill="#C4C4C4"/>
<rect x="91.7009" y="154.061" width="2.29253" height="4.05422" fill="#C4C4C4"/>
<rect x="93.9935" y="154.061" width="2.29253" height="4.05422" fill="#C4C4C4"/>
<rect x="96.2861" y="154.061" width="2.29253" height="4.05422" fill="#C4C4C4"/>
<rect x="98.5785" y="154.061" width="2.29253" height="4.05422" fill="#C4C4C4"/>
<rect y="158.114" width="2.29253" height="4.05422" fill="#C4C4C4"/>
<rect x="2.2926" y="158.114" width="2.29253" height="4.05422" fill="#C4C4C4"/>
<rect x="4.58496" y="158.114" width="2.29253" height="4.05422" fill="#C4C4C4"/>
<rect x="6.87756" y="158.114" width="2.29253" height="4.05422" fill="#C4C4C4"/>
<rect x="9.17017" y="158.114" width="2.29253" height="4.05422" fill="#C4C4C4"/>
<rect x="11.4625" y="158.114" width="2.29253" height="4.05422" fill="#C4C4C4"/>
<rect x="13.7552" y="158.114" width="2.29253" height="4.05422" fill="#C4C4C4"/>
<rect x="16.0476" y="158.114" width="2.29253" height="4.05422" fill="#C4C4C4"/>
<rect x="18.3402" y="158.114" width="2.29253" height="4.05422" fill="#C4C4C4"/>
<rect x="20.6328" y="158.114" width="2.29253" height="4.05422" fill="#C4C4C4"/>
<rect x="22.9252" y="158.114" width="2.29253" height="4.05422" fill="#C4C4C4"/>
<rect x="25.2178" y="158.114" width="2.29253" height="4.05422" fill="#C4C4C4"/>
<rect x="27.5104" y="158.114" width="2.29253" height="4.05422" fill="#C4C4C4"/>
<rect x="29.8027" y="158.114" width="2.29253" height="4.05422" fill="#C4C4C4"/>
<rect x="32.0953" y="158.114" width="2.29253" height="4.05422" fill="#C4C4C4"/>
<rect x="34.3879" y="158.114" width="2.29253" height="4.05422" fill="#C4C4C4"/>
<rect x="36.6803" y="158.114" width="2.29253" height="4.05422" fill="#C4C4C4"/>
<rect x="38.973" y="158.114" width="2.29253" height="4.05422" fill="#C4C4C4"/>
<rect x="41.2654" y="158.114" width="2.29253" height="4.05422" fill="#C4C4C4"/>
<rect x="43.558" y="158.114" width="2.29253" height="4.05422" fill="#C4C4C4"/>
<rect x="45.8506" y="158.114" width="2.29253" height="4.05422" fill="#C4C4C4"/>
<rect x="48.1429" y="158.114" width="2.29253" height="4.05422" fill="#C4C4C4"/>
<rect x="50.4355" y="158.114" width="2.29253" height="4.05422" fill="#C4C4C4"/>
<rect x="52.7281" y="158.114" width="2.29253" height="4.05422" fill="#C4C4C4"/>
<rect x="55.0205" y="158.114" width="2.29253" height="4.05422" fill="#C4C4C4"/>
<rect x="57.3131" y="158.114" width="2.29253" height="4.05422" fill="#C4C4C4"/>
<rect x="59.6057" y="158.114" width="2.29253" height="4.05422" fill="#C4C4C4"/>
<rect x="61.8981" y="158.114" width="2.29253" height="4.05422" fill="#C4C4C4"/>
<rect x="64.1908" y="158.114" width="2.29253" height="4.05422" fill="#C4C4C4"/>
<rect x="66.4832" y="158.114" width="2.29253" height="4.05422" fill="#C4C4C4"/>
<rect x="68.7758" y="158.114" width="2.29253" height="4.05422" fill="#C4C4C4"/>
<rect x="71.0684" y="158.114" width="2.29253" height="4.05422" fill="#C4C4C4"/>
<rect x="73.3607" y="158.114" width="2.29253" height="4.05422" fill="#C4C4C4"/>
<rect x="75.6533" y="158.114" width="2.29253" height="4.05422" fill="#C4C4C4"/>
<rect x="77.9459" y="158.114" width="2.29253" height="4.05422" fill="#C4C4C4"/>
<rect x="80.2383" y="158.114" width="2.29253" height="4.05422" fill="#C4C4C4"/>
<rect x="82.5309" y="158.114" width="2.29253" height="4.05422" fill="#C4C4C4"/>
<rect x="84.8235" y="158.114" width="2.29253" height="4.05422" fill="#C4C4C4"/>
<rect x="87.1158" y="158.114" width="2.29253" height="4.05422" fill="#C4C4C4"/>
<rect x="89.4086" y="158.114" width="2.29253" height="4.05422" fill="#C4C4C4"/>
<rect x="91.7009" y="158.114" width="2.29253" height="4.05422" fill="#C4C4C4"/>
<rect x="93.9935" y="158.114" width="2.29253" height="4.05422" fill="#C4C4C4"/>
<rect x="96.2861" y="158.114" width="2.29253" height="4.05422" fill="#C4C4C4"/>
<rect x="98.5785" y="158.114" width="2.29253" height="4.05422" fill="#C4C4C4"/>
<rect y="162.169" width="2.29253" height="4.05422" fill="#C4C4C4"/>
<rect x="2.2926" y="162.169" width="2.29253" height="4.05422" fill="#C4C4C4"/>
<rect x="4.58496" y="162.169" width="2.29253" height="4.05422" fill="#C4C4C4"/>
<rect x="6.87756" y="162.169" width="2.29253" height="4.05422" fill="#C4C4C4"/>
<rect x="9.17017" y="162.169" width="2.29253" height="4.05422" fill="#C4C4C4"/>
<rect x="11.4625" y="162.169" width="2.29253" height="4.05422" fill="#C4C4C4"/>
<rect x="13.7552" y="162.169" width="2.29253" height="4.05422" fill="#C4C4C4"/>
<rect x="16.0476" y="162.169" width="2.29253" height="4.05422" fill="#C4C4C4"/>
<rect x="18.3402" y="162.169" width="2.29253" height="4.05422" fill="#C4C4C4"/>
<rect x="20.6328" y="162.169" width="2.29253" height="4.05422" fill="#C4C4C4"/>
<rect x="22.9252" y="162.169" width="2.29253" height="4.05422" fill="#C4C4C4"/>
<rect x="25.2178" y="162.169" width="2.29253" height="4.05422" fill="#C4C4C4"/>
<rect x="27.5104" y="162.169" width="2.29253" height="4.05422" fill="#C4C4C4"/>
<rect x="29.8027" y="162.169" width="2.29253" height="4.05422" fill="#C4C4C4"/>
<rect x="32.0953" y="162.169" width="2.29253" height="4.05422" fill="#C4C4C4"/>
<rect x="34.3879" y="162.169" width="2.29253" height="4.05422" fill="#C4C4C4"/>
<rect x="36.6803" y="162.169" width="2.29253" height="4.05422" fill="#C4C4C4"/>
<rect x="38.973" y="162.169" width="2.29253" height="4.05422" fill="#C4C4C4"/>
<rect x="41.2654" y="162.169" width="2.29253" height="4.05422" fill="#C4C4C4"/>
<rect x="43.558" y="162.169" width="2.29253" height="4.05422" fill="#C4C4C4"/>
<rect x="45.8506" y="162.169" width="2.29253" height="4.05422" fill="#C4C4C4"/>
<rect x="48.1429" y="162.169" width="2.29253" height="4.05422" fill="#C4C4C4"/>
<rect x="50.4355" y="162.169" width="2.29253" height="4.05422" fill="#C4C4C4"/>
<rect x="52.7281" y="162.169" width="2.29253" height="4.05422" fill="#C4C4C4"/>
<rect x="55.0205" y="162.169" width="2.29253" height="4.05422" fill="#C4C4C4"/>
<rect x="57.3131" y="162.169" width="2.29253" height="4.05422" fill="#C4C4C4"/>
<rect x="59.6057" y="162.169" width="2.29253" height="4.05422" fill="#C4C4C4"/>
<rect x="61.8981" y="162.169" width="2.29253" height="4.05422" fill="#C4C4C4"/>
<rect x="64.1908" y="162.169" width="2.29253" height="4.05422" fill="#C4C4C4"/>
<rect x="66.4832" y="162.169" width="2.29253" height="4.05422" fill="#C4C4C4"/>
<rect x="68.7758" y="162.169" width="2.29253" height="4.05422" fill="#C4C4C4"/>
<rect x="71.0684" y="162.169" width="2.29253" height="4.05422" fill="#C4C4C4"/>
<rect x="73.3607" y="162.169" width="2.29253" height="4.05422" fill="#C4C4C4"/>
<rect x="75.6533" y="162.169" width="2.29253" height="4.05422" fill="#C4C4C4"/>
<rect x="77.9459" y="162.169" width="2.29253" height="4.05422" fill="#C4C4C4"/>
<rect x="80.2383" y="162.169" width="2.29253" height="4.05422" fill="#C4C4C4"/>
<rect x="82.5309" y="162.169" width="2.29253" height="4.05422" fill="#C4C4C4"/>
<rect x="84.8235" y="162.169" width="2.29253" height="4.05422" fill="#C4C4C4"/>
<rect x="87.1158" y="162.169" width="2.29253" height="4.05422" fill="#C4C4C4"/>
<rect x="89.4086" y="162.169" width="2.29253" height="4.05422" fill="#C4C4C4"/>
<rect x="91.7009" y="162.169" width="2.29253" height="4.05422" fill="#C4C4C4"/>
<rect x="93.9935" y="162.169" width="2.29253" height="4.05422" fill="#C4C4C4"/>
<rect x="96.2861" y="162.169" width="2.29253" height="4.05422" fill="#C4C4C4"/>
<rect x="98.5785" y="162.169" width="2.29253" height="4.05422" fill="#C4C4C4"/>
<rect y="166.223" width="2.29253" height="4.05422" fill="#C4C4C4"/>
<rect x="2.2926" y="166.223" width="2.29253" height="4.05422" fill="#C4C4C4"/>
<rect x="4.58496" y="166.223" width="2.29253" height="4.05422" fill="#C4C4C4"/>
<rect x="6.87756" y="166.223" width="2.29253" height="4.05422" fill="#C4C4C4"/>
<rect x="9.17017" y="166.223" width="2.29253" height="4.05422" fill="#C4C4C4"/>
<rect x="11.4625" y="166.223" width="2.29253" height="4.05422" fill="#C4C4C4"/>
<rect x="13.7552" y="166.223" width="2.29253" height="4.05422" fill="#C4C4C4"/>
<rect x="16.0476" y="166.223" width="2.29253" height="4.05422" fill="#C4C4C4"/>
<rect x="18.3402" y="166.223" width="2.29253" height="4.05422" fill="#C4C4C4"/>
<rect x="20.6328" y="166.223" width="2.29253" height="4.05422" fill="#C4C4C4"/>
<rect x="22.9252" y="166.223" width="2.29253" height="4.05422" fill="#C4C4C4"/>
<rect x="25.2178" y="166.223" width="2.29253" height="4.05422" fill="#C4C4C4"/>
<rect x="27.5104" y="166.223" width="2.29253" height="4.05422" fill="#C4C4C4"/>
<rect x="29.8027" y="166.223" width="2.29253" height="4.05422" fill="#C4C4C4"/>
<rect x="32.0953" y="166.223" width="2.29253" height="4.05422" fill="#C4C4C4"/>
<rect x="34.3879" y="166.223" width="2.29253" height="4.05422" fill="#C4C4C4"/>
<rect x="36.6803" y="166.223" width="2.29253" height="4.05422" fill="#C4C4C4"/>
<rect x="38.973" y="166.223" width="2.29253" height="4.05422" fill="#C4C4C4"/>
<rect x="41.2654" y="166.223" width="2.29253" height="4.05422" fill="#C4C4C4"/>
<rect x="43.558" y="166.223" width="2.29253" height="4.05422" fill="#C4C4C4"/>
<rect x="45.8506" y="166.223" width="2.29253" height="4.05422" fill="#C4C4C4"/>
<rect x="48.1429" y="166.223" width="2.29253" height="4.05422" fill="#C4C4C4"/>
<rect x="50.4355" y="166.223" width="2.29253" height="4.05422" fill="#C4C4C4"/>
<rect x="52.7281" y="166.223" width="2.29253" height="4.05422" fill="#C4C4C4"/>
<rect x="55.0205" y="166.223" width="2.29253" height="4.05422" fill="#C4C4C4"/>
<rect x="57.3131" y="166.223" width="2.29253" height="4.05422" fill="#C4C4C4"/>
<rect x="59.6057" y="166.223" width="2.29253" height="4.05422" fill="#C4C4C4"/>
<rect x="61.8981" y="166.223" width="2.29253" height="4.05422" fill="#C4C4C4"/>
<rect x="64.1908" y="166.223" width="2.29253" height="4.05422" fill="#C4C4C4"/>
<rect x="66.4832" y="166.223" width="2.29253" height="4.05422" fill="#C4C4C4"/>
<rect x="68.7758" y="166.223" width="2.29253" height="4.05422" fill="#C4C4C4"/>
<rect x="71.0684" y="166.223" width="2.29253" height="4.05422" fill="#C4C4C4"/>
<rect x="73.3607" y="166.223" width="2.29253" height="4.05422" fill="#C4C4C4"/>
<rect x="75.6533" y="166.223" width="2.29253" height="4.05422" fill="#C4C4C4"/>
<rect x="77.9459" y="166.223" width="2.29253" height="4.05422" fill="#C4C4C4"/>
<rect x="80.2383" y="166.223" width="2.29253" height="4.05422" fill="#C4C4C4"/>
<rect x="82.5309" y="166.223" width="2.29253" height="4.05422" fill="#C4C4C4"/>
<rect x="84.8235" y="166.223" width="2.29253" height="4.05422" fill="#C4C4C4"/>
<rect x="87.1158" y="166.223" width="2.29253" height="4.05422" fill="#C4C4C4"/>
<rect x="89.4086" y="166.223" width="2.29253" height="4.05422" fill="#C4C4C4"/>
<rect x="91.7009" y="166.223" width="2.29253" height="4.05422" fill="#C4C4C4"/>
<rect x="93.9935" y="166.223" width="2.29253" height="4.05422" fill="#C4C4C4"/>
<rect x="96.2861" y="166.223" width="2.29253" height="4.05422" fill="#C4C4C4"/>
<rect x="98.5785" y="166.223" width="2.29253" height="4.05422" fill="#C4C4C4"/>
<rect y="170.277" width="2.29253" height="4.05422" fill="#C4C4C4"/>
<rect x="2.2926" y="170.277" width="2.29253" height="4.05422" fill="#C4C4C4"/>
<rect x="4.58496" y="170.277" width="2.29253" height="4.05422" fill="#C4C4C4"/>
<rect x="6.87756" y="170.277" width="2.29253" height="4.05422" fill="#C4C4C4"/>
<rect x="9.17017" y="170.277" width="2.29253" height="4.05422" fill="#C4C4C4"/>
<rect x="11.4625" y="170.277" width="2.29253" height="4.05422" fill="#C4C4C4"/>
<rect x="13.7552" y="170.277" width="2.29253" height="4.05422" fill="#C4C4C4"/>
<rect x="16.0476" y="170.277" width="2.29253" height="4.05422" fill="#C4C4C4"/>
<rect x="18.3402" y="170.277" width="2.29253" height="4.05422" fill="#C4C4C4"/>
<rect x="20.6328" y="170.277" width="2.29253" height="4.05422" fill="#C4C4C4"/>
<rect x="22.9252" y="170.277" width="2.29253" height="4.05422" fill="#C4C4C4"/>
<rect x="25.2178" y="170.277" width="2.29253" height="4.05422" fill="#C4C4C4"/>
<rect x="27.5104" y="170.277" width="2.29253" height="4.05422" fill="#C4C4C4"/>
<rect x="29.8027" y="170.277" width="2.29253" height="4.05422" fill="#C4C4C4"/>
<rect x="32.0953" y="170.277" width="2.29253" height="4.05422" fill="#C4C4C4"/>
<rect x="34.3879" y="170.277" width="2.29253" height="4.05422" fill="#C4C4C4"/>
<rect x="36.6803" y="170.277" width="2.29253" height="4.05422" fill="#C4C4C4"/>
<rect x="38.973" y="170.277" width="2.29253" height="4.05422" fill="#C4C4C4"/>
<rect x="41.2654" y="170.277" width="2.29253" height="4.05422" fill="#C4C4C4"/>
<rect x="43.558" y="170.277" width="2.29253" height="4.05422" fill="#C4C4C4"/>
<rect x="45.8506" y="170.277" width="2.29253" height="4.05422" fill="#C4C4C4"/>
<rect x="48.1429" y="170.277" width="2.29253" height="4.05422" fill="#C4C4C4"/>
<rect x="50.4355" y="170.277" width="2.29253" height="4.05422" fill="#C4C4C4"/>
<rect x="52.7281" y="170.277" width="2.29253" height="4.05422" fill="#C4C4C4"/>
<rect x="55.0205" y="170.277" width="2.29253" height="4.05422" fill="#C4C4C4"/>
<rect x="57.3131" y="170.277" width="2.29253" height="4.05422" fill="#C4C4C4"/>
<rect x="59.6057" y="170.277" width="2.29253" height="4.05422" fill="#C4C4C4"/>
<rect x="61.8981" y="170.277" width="2.29253" height="4.05422" fill="#C4C4C4"/>
<rect x="64.1908" y="170.277" width="2.29253" height="4.05422" fill="#C4C4C4"/>
<rect x="66.4832" y="170.277" width="2.29253" height="4.05422" fill="#C4C4C4"/>
<rect x="68.7758" y="170.277" width="2.29253" height="4.05422" fill="#C4C4C4"/>
<rect x="71.0684" y="170.277" width="2.29253" height="4.05422" fill="#C4C4C4"/>
<rect x="73.3607" y="170.277" width="2.29253" height="4.05422" fill="#C4C4C4"/>
<rect x="75.6533" y="170.277" width="2.29253" height="4.05422" fill="#C4C4C4"/>
<rect x="77.9459" y="170.277" width="2.29253" height="4.05422" fill="#C4C4C4"/>
<rect x="80.2383" y="170.277" width="2.29253" height="4.05422" fill="#C4C4C4"/>
<rect x="82.5309" y="170.277" width="2.29253" height="4.05422" fill="#C4C4C4"/>
<rect x="84.8235" y="170.277" width="2.29253" height="4.05422" fill="#C4C4C4"/>
<rect x="87.1158" y="170.277" width="2.29253" height="4.05422" fill="#C4C4C4"/>
<rect x="89.4086" y="170.277" width="2.29253" height="4.05422" fill="#C4C4C4"/>
<rect x="91.7009" y="170.277" width="2.29253" height="4.05422" fill="#C4C4C4"/>
<rect x="93.9935" y="170.277" width="2.29253" height="4.05422" fill="#C4C4C4"/>
<rect x="96.2861" y="170.277" width="2.29253" height="4.05422" fill="#C4C4C4"/>
<rect x="98.5785" y="170.277" width="2.29253" height="4.05422" fill="#C4C4C4"/>
<rect y="174.331" width="2.29253" height="4.05422" fill="#C4C4C4"/>
<rect x="2.2926" y="174.331" width="2.29253" height="4.05422" fill="#C4C4C4"/>
<rect x="4.58496" y="174.331" width="2.29253" height="4.05422" fill="#C4C4C4"/>
<rect x="6.87756" y="174.331" width="2.29253" height="4.05422" fill="#C4C4C4"/>
<rect x="9.17017" y="174.331" width="2.29253" height="4.05422" fill="#C4C4C4"/>
<rect x="11.4625" y="174.331" width="2.29253" height="4.05422" fill="#C4C4C4"/>
<rect x="13.7552" y="174.331" width="2.29253" height="4.05422" fill="#C4C4C4"/>
<rect x="16.0476" y="174.331" width="2.29253" height="4.05422" fill="#C4C4C4"/>
<rect x="18.3402" y="174.331" width="2.29253" height="4.05422" fill="#C4C4C4"/>
<rect x="20.6328" y="174.331" width="2.29253" height="4.05422" fill="#C4C4C4"/>
<rect x="22.9252" y="174.331" width="2.29253" height="4.05422" fill="#C4C4C4"/>
<rect x="25.2178" y="174.331" width="2.29253" height="4.05422" fill="#C4C4C4"/>
<rect x="27.5104" y="174.331" width="2.29253" height="4.05422" fill="#C4C4C4"/>
<rect x="29.8027" y="174.331" width="2.29253" height="4.05422" fill="#C4C4C4"/>
<rect x="32.0953" y="174.331" width="2.29253" height="4.05422" fill="#C4C4C4"/>
<rect x="34.3879" y="174.331" width="2.29253" height="4.05422" fill="#C4C4C4"/>
<rect x="36.6803" y="174.331" width="2.29253" height="4.05422" fill="#C4C4C4"/>
<rect x="38.973" y="174.331" width="2.29253" height="4.05422" fill="#C4C4C4"/>
<rect x="41.2654" y="174.331" width="2.29253" height="4.05422" fill="#C4C4C4"/>
<rect x="43.558" y="174.331" width="2.29253" height="4.05422" fill="#C4C4C4"/>
<rect x="45.8506" y="174.331" width="2.29253" height="4.05422" fill="#C4C4C4"/>
<rect x="48.1429" y="174.331" width="2.29253" height="4.05422" fill="#C4C4C4"/>
<rect x="50.4355" y="174.331" width="2.29253" height="4.05422" fill="#C4C4C4"/>
<rect x="52.7281" y="174.331" width="2.29253" height="4.05422" fill="#C4C4C4"/>
<rect x="55.0205" y="174.331" width="2.29253" height="4.05422" fill="#C4C4C4"/>
<rect x="57.3131" y="174.331" width="2.29253" height="4.05422" fill="#C4C4C4"/>
<rect x="59.6057" y="174.331" width="2.29253" height="4.05422" fill="#C4C4C4"/>
<rect x="61.8981" y="174.331" width="2.29253" height="4.05422" fill="#C4C4C4"/>
<rect x="64.1908" y="174.331" width="2.29253" height="4.05422" fill="#C4C4C4"/>
<rect x="66.4832" y="174.331" width="2.29253" height="4.05422" fill="#C4C4C4"/>
<rect x="68.7758" y="174.331" width="2.29253" height="4.05422" fill="#C4C4C4"/>
<rect x="71.0684" y="174.331" width="2.29253" height="4.05422" fill="#C4C4C4"/>
<rect x="73.3607" y="174.331" width="2.29253" height="4.05422" fill="#C4C4C4"/>
<rect x="75.6533" y="174.331" width="2.29253" height="4.05422" fill="#C4C4C4"/>
<rect x="77.9459" y="174.331" width="2.29253" height="4.05422" fill="#C4C4C4"/>
<rect x="80.2383" y="174.331" width="2.29253" height="4.05422" fill="#C4C4C4"/>
<rect x="82.5309" y="174.331" width="2.29253" height="4.05422" fill="#C4C4C4"/>
<rect x="84.8235" y="174.331" width="2.29253" height="4.05422" fill="#C4C4C4"/>
<rect x="87.1158" y="174.331" width="2.29253" height="4.05422" fill="#C4C4C4"/>
<rect x="89.4086" y="174.331" width="2.29253" height="4.05422" fill="#C4C4C4"/>
<rect x="91.7009" y="174.331" width="2.29253" height="4.05422" fill="#C4C4C4"/>
<rect x="93.9935" y="174.331" width="2.29253" height="4.05422" fill="#C4C4C4"/>
<rect x="96.2861" y="174.331" width="2.29253" height="4.05422" fill="#C4C4C4"/>
<rect x="98.5785" y="174.331" width="2.29253" height="4.05422" fill="#C4C4C4"/>
</svg>
